<svg preserveAspectRatio="xMidYMid meet" data-bbox="49.999 35.003 100.002 129.997" viewBox="49.999 35.003 100.002 129.997" height="200" width="200" xmlns="http://www.w3.org/2000/svg" data-type="color" role="img">
    <g>
        <path d="M127.676 124.091a.709.709 0 0 0-.723-.146c-.152.055-15.407 5.56-35.664 5.56-20.261 0-37.539-5.513-37.711-5.569a.71.71 0 0 0-.918.77c1.501 11.118 5.864 20.49 13.875 28.392 7.056 6.961 17.632 9.265 27.97 9.265 8.353 0 19.027-7.099 25.732-19.23 5.006-9.057 7.614-18.238 7.64-18.33a.71.71 0 0 0-.201-.712z" fill="#E98866" data-color="1"></path>
        <path d="M83.763 69.251c0 3.347 1.867 5.34 3.367 6.941 1.369 1.461 2.143 2.358 2.143 3.803 0 1.117.902 2.021 2.016 2.021a2.018 2.018 0 0 0 2.016-2.021c0-3.117-1.795-5.032-3.236-6.571-1.41-1.504-2.274-2.511-2.274-4.172 0-1.658.862-2.66 2.267-4.157 1.445-1.538 3.243-3.454 3.243-6.585s-1.798-5.047-3.243-6.586c-1.406-1.498-2.267-2.5-2.267-4.157 0-1.679.875-2.706 2.302-4.242 1.429-1.538 3.208-3.453 3.208-6.501a2.018 2.018 0 0 0-2.016-2.021 2.018 2.018 0 0 0-2.016 2.021c0 1.39-.768 2.284-2.126 3.745-1.508 1.623-3.384 3.642-3.384 6.998 0 3.345 1.865 5.332 3.363 6.928 1.371 1.46 2.147 2.358 2.147 3.815 0 1.457-.776 2.354-2.146 3.815-1.499 1.594-3.364 3.581-3.364 6.926z" fill="#0E4828" data-color="2"></path>
        <path d="M76.558 79.995c0 1.117.902 2.021 2.016 2.021a2.018 2.018 0 0 0 2.016-2.021c0-3.117-1.795-5.032-3.236-6.571-1.41-1.504-2.274-2.511-2.274-4.172 0-1.658.862-2.66 2.267-4.157 1.445-1.538 3.243-3.454 3.243-6.585a2.018 2.018 0 0 0-2.016-2.021 2.018 2.018 0 0 0-2.016 2.021c0 1.457-.776 2.354-2.146 3.815-1.499 1.596-3.364 3.583-3.364 6.928 0 3.347 1.867 5.34 3.367 6.941 1.369 1.459 2.143 2.356 2.143 3.801z" fill="#0E4828" data-color="2"></path>
        <path d="M101.988 79.995c0 1.117.902 2.021 2.016 2.021a2.018 2.018 0 0 0 2.016-2.021c0-3.117-1.795-5.032-3.236-6.571-1.41-1.504-2.274-2.511-2.274-4.172 0-1.658.862-2.66 2.267-4.157 1.445-1.538 3.243-3.454 3.243-6.585a2.018 2.018 0 0 0-2.016-2.021 2.018 2.018 0 0 0-2.016 2.021c0 1.457-.776 2.354-2.146 3.815-1.499 1.596-3.364 3.583-3.364 6.928 0 3.347 1.867 5.34 3.367 6.941 1.369 1.459 2.143 2.356 2.143 3.801z" fill="#0E4828" data-color="2"></path>
        <path d="M136.05 105.607h-5.495v-4.899a3.34 3.34 0 0 0-.758-2.107c-3.153-6.051-19.642-10.665-39.52-10.665-19.89 0-36.386 4.62-39.526 10.676a3.342 3.342 0 0 0-.752 2.1v23.899C50 146.882 68.069 165 90.278 165c19.144 0 35.201-13.467 39.271-31.448.104.01.204.031.31.031h6.192c7.692 0 13.95-6.275 13.95-13.988s-6.259-13.988-13.951-13.988zm-12.214 19.004c0 18.555-15.054 33.651-33.558 33.651S56.72 143.166 56.72 124.611v-16.925c7.154 3.488 19.507 5.795 33.558 5.795 14.051 0 26.404-2.307 33.558-5.795v16.925zm12.214 2.234h-5.56c.04-.74.065-1.484.065-2.235v-12.265h5.495c3.986 0 7.23 3.252 7.23 7.25s-3.243 7.25-7.23 7.25z" fill="#0E4828" data-color="2"></path>
    </g>
</svg>
