<?xml version="1.0" encoding="UTF-8" standalone="no"?>
<svg
   xmlns:dc="http://purl.org/dc/elements/1.1/"
   xmlns:cc="http://creativecommons.org/ns#"
   xmlns:rdf="http://www.w3.org/1999/02/22-rdf-syntax-ns#"
   xmlns:svg="http://www.w3.org/2000/svg"
   xmlns="http://www.w3.org/2000/svg"
   xmlns:sodipodi="http://sodipodi.sourceforge.net/DTD/sodipodi-0.dtd"
   xmlns:inkscape="http://www.inkscape.org/namespaces/inkscape"
   preserveAspectRatio="xMidYMid meet"
   data-bbox="49.999 35.003 100.002 129.997"
   viewBox="49.999 35.003 76.92793 129.997"
   height="200"
   width="153.85278"
   data-type="color"
   role="img"
   version="1.1"
   id="svg14"
   sodipodi:docname="coffee.svg"
   inkscape:version="0.92.3 (2405546, 2018-03-11)">
  <metadata
     id="metadata20">
    <rdf:RDF>
      <cc:Work
         rdf:about="">
        <dc:format>image/svg+xml</dc:format>
        <dc:type
           rdf:resource="http://purl.org/dc/dcmitype/StillImage" />
        <dc:title></dc:title>
      </cc:Work>
    </rdf:RDF>
  </metadata>
  <defs
     id="defs18" />
  <sodipodi:namedview
     pagecolor="#ffffff"
     bordercolor="#666666"
     borderopacity="1"
     objecttolerance="10"
     gridtolerance="10"
     guidetolerance="10"
     inkscape:pageopacity="0"
     inkscape:pageshadow="2"
     inkscape:window-width="1600"
     inkscape:window-height="842"
     id="namedview16"
     showgrid="false"
     inkscape:zoom="1.668772"
     inkscape:cx="-0.56119266"
     inkscape:cy="98.512333"
     inkscape:window-x="1366"
     inkscape:window-y="251"
     inkscape:window-maximized="1"
     inkscape:current-layer="svg14" />
  <g
     id="g12"
     transform="translate(-11.537036)">
    <path
       d="m 127.676,124.091 a 0.709,0.709 0 0 0 -0.723,-0.146 c -0.152,0.055 -15.407,5.56 -35.664,5.56 -20.261,0 -37.539,-5.513 -37.711,-5.569 a 0.71,0.71 0 0 0 -0.918,0.77 c 1.501,11.118 5.864,20.49 13.875,28.392 7.056,6.961 17.632,9.265 27.97,9.265 8.353,0 19.027,-7.099 25.732,-19.23 5.006,-9.057 7.614,-18.238 7.64,-18.33 a 0.71,0.71 0 0 0 -0.201,-0.712 z"
       data-color="1"
       id="path2"
       style="fill:none"
       inkscape:connector-curvature="0" />
    <path
       d="m 83.763,69.251 c 0,3.347 1.867,5.34 3.367,6.941 1.369,1.461 2.143,2.358 2.143,3.803 0,1.117 0.902,2.021 2.016,2.021 a 2.018,2.018 0 0 0 2.016,-2.021 c 0,-3.117 -1.795,-5.032 -3.236,-6.571 -1.41,-1.504 -2.274,-2.511 -2.274,-4.172 0,-1.658 0.862,-2.66 2.267,-4.157 1.445,-1.538 3.243,-3.454 3.243,-6.585 0,-3.131 -1.798,-5.047 -3.243,-6.586 -1.406,-1.498 -2.267,-2.5 -2.267,-4.157 0,-1.679 0.875,-2.706 2.302,-4.242 1.429,-1.538 3.208,-3.453 3.208,-6.501 a 2.018,2.018 0 0 0 -2.016,-2.021 2.018,2.018 0 0 0 -2.016,2.021 c 0,1.39 -0.768,2.284 -2.126,3.745 -1.508,1.623 -3.384,3.642 -3.384,6.998 0,3.345 1.865,5.332 3.363,6.928 1.371,1.46 2.147,2.358 2.147,3.815 0,1.457 -0.776,2.354 -2.146,3.815 -1.499,1.594 -3.364,3.581 -3.364,6.926 z"
       data-color="2"
       id="path4"
       style="fill:#000000"
       inkscape:connector-curvature="0" />
    <path
       d="m 76.558,79.995 c 0,1.117 0.902,2.021 2.016,2.021 a 2.018,2.018 0 0 0 2.016,-2.021 c 0,-3.117 -1.795,-5.032 -3.236,-6.571 -1.41,-1.504 -2.274,-2.511 -2.274,-4.172 0,-1.658 0.862,-2.66 2.267,-4.157 1.445,-1.538 3.243,-3.454 3.243,-6.585 a 2.018,2.018 0 0 0 -2.016,-2.021 2.018,2.018 0 0 0 -2.016,2.021 c 0,1.457 -0.776,2.354 -2.146,3.815 -1.499,1.596 -3.364,3.583 -3.364,6.928 0,3.347 1.867,5.34 3.367,6.941 1.369,1.459 2.143,2.356 2.143,3.801 z"
       data-color="2"
       id="path6"
       style="fill:#000000"
       inkscape:connector-curvature="0" />
    <path
       d="m 101.988,79.995 c 0,1.117 0.902,2.021 2.016,2.021 a 2.018,2.018 0 0 0 2.016,-2.021 c 0,-3.117 -1.795,-5.032 -3.236,-6.571 -1.41,-1.504 -2.274,-2.511 -2.274,-4.172 0,-1.658 0.862,-2.66 2.267,-4.157 1.445,-1.538 3.243,-3.454 3.243,-6.585 a 2.018,2.018 0 0 0 -2.016,-2.021 2.018,2.018 0 0 0 -2.016,2.021 c 0,1.457 -0.776,2.354 -2.146,3.815 -1.499,1.596 -3.364,3.583 -3.364,6.928 0,3.347 1.867,5.34 3.367,6.941 1.369,1.459 2.143,2.356 2.143,3.801 z"
       data-color="2"
       id="path8"
       style="fill:#000000"
       inkscape:connector-curvature="0" />
    <path
       d="m 136.05,105.607 h -5.495 v -4.899 a 3.34,3.34 0 0 0 -0.758,-2.107 c -3.153,-6.051 -19.642,-10.665 -39.52,-10.665 -19.89,0 -36.386,4.62 -39.526,10.676 a 3.342,3.342 0 0 0 -0.752,2.1 v 23.899 C 50,146.882 68.069,165 90.278,165 c 19.144,0 35.201,-13.467 39.271,-31.448 0.104,0.01 0.204,0.031 0.31,0.031 h 6.192 c 7.692,0 13.95,-6.275 13.95,-13.988 0,-7.713 -6.259,-13.988 -13.951,-13.988 z m -12.214,19.004 c 0,18.555 -15.054,33.651 -33.558,33.651 -18.504,0 -33.558,-15.096 -33.558,-33.651 v -16.925 c 7.154,3.488 19.507,5.795 33.558,5.795 14.051,0 26.404,-2.307 33.558,-5.795 z m 12.214,2.234 h -5.56 c 0.04,-0.74 0.065,-1.484 0.065,-2.235 v -12.265 h 5.495 c 3.986,0 7.23,3.252 7.23,7.25 0,3.998 -3.243,7.25 -7.23,7.25 z"
       data-color="2"
       id="path10"
       style="fill:#000000"
       inkscape:connector-curvature="0" />
  </g>
</svg>
