<?xml version="1.0" encoding="UTF-8" standalone="no"?>
<!-- Created with Inkscape (http://www.inkscape.org/) -->

<svg
   xmlns:dc="http://purl.org/dc/elements/1.1/"
   xmlns:cc="http://creativecommons.org/ns#"
   xmlns:rdf="http://www.w3.org/1999/02/22-rdf-syntax-ns#"
   xmlns:svg="http://www.w3.org/2000/svg"
   xmlns="http://www.w3.org/2000/svg"
   xmlns:sodipodi="http://sodipodi.sourceforge.net/DTD/sodipodi-0.dtd"
   xmlns:inkscape="http://www.inkscape.org/namespaces/inkscape"
   width="1013.8819mm"
   height="165.72104mm"
   viewBox="0 0 1013.8819 165.72104"
   version="1.1"
   id="svg44408"
   inkscape:version="0.92.5 (2060ec1f9f, 2020-04-08)"
   sodipodi:docname="jessicasaka.svg">
  <defs
     id="defs44402" />
  <sodipodi:namedview
     id="base"
     pagecolor="#ffffff"
     bordercolor="#666666"
     borderopacity="1.0"
     inkscape:pageopacity="0.0"
     inkscape:pageshadow="2"
     inkscape:zoom="0.12374369"
     inkscape:cx="192.96246"
     inkscape:cy="-366.92354"
     inkscape:document-units="mm"
     inkscape:current-layer="layer1"
     showgrid="false"
     inkscape:window-width="1600"
     inkscape:window-height="855"
     inkscape:window-x="1366"
     inkscape:window-y="0"
     inkscape:window-maximized="1" />
  <metadata
     id="metadata44405">
    <rdf:RDF>
      <cc:Work
         rdf:about="">
        <dc:format>image/svg+xml</dc:format>
        <dc:type
           rdf:resource="http://purl.org/dc/dcmitype/StillImage" />
        <dc:title></dc:title>
      </cc:Work>
    </rdf:RDF>
  </metadata>
  <g
     inkscape:label="Camada 1"
     inkscape:groupmode="layer"
     id="layer1"
     transform="translate(372.38143,-1.237805)">
    <g
       id="g2754"
       transform="matrix(0.24104105,0,0,-0.24104105,-617.07907,3961.1378)">
      <path
         d="m 1116.44,16300 h 78.17 v 0 c -7.31,-12.2 -11.18,-26.1 -11.18,-40.3 v -369.3 c 0,-82.5 -85.74,-149.6 -168.26,-149.6 v 18.5 c 72.25,0 112.45,58.9 112.45,131.1 v 369.3 c 0,14.2 -3.85,28.1 -11.18,40.3"
         style="fill:#dabc92;fill-opacity:1;fill-rule:nonzero;stroke:none"
         id="path2756"
         inkscape:connector-curvature="0" />
    </g>
    <g
       id="g2758"
       transform="matrix(0.24104211,0,0,-0.24104211,-617.07907,3961.1378)">
      <path
         d="m 1592.67,16300 v -18.6 H 1339.01 V 16087 h 150.8 v -18.6 h -150.8 v -200.9 h 253.67 v -18.6 h -320.66 c 7.32,12.2 11.19,26.1 11.19,40.3 v 370.5 c 0,14.2 -3.87,28.1 -11.19,40.3 h 320.65"
         style="fill:#dabc92;fill-opacity:1;fill-rule:nonzero;stroke:none"
         id="path2760"
         inkscape:connector-curvature="0" />
    </g>
    <g
       id="g2762"
       transform="matrix(0.2412051,0,0,-0.2412051,-617.07907,3961.1378)">
      <path
         d="m 1680.03,16179.8 c 0,-47 12.13,-78.3 124.66,-101.4 90.19,-21.9 177.92,-49.2 177.92,-120 0,-66.2 -80.66,-120.2 -179.84,-120.2 -99.16,0 -179.84,54 -179.84,120.2 h 57.1 c 0,-55.7 34.07,-101.1 122.74,-101.1 88.66,0 122.74,45.4 122.74,101.1 0,51.4 -24.31,76.9 -124.99,101.5 -82.5,16.9 -177.59,45.9 -177.59,119.9 0,66.3 80.68,120.2 179.84,120.2 99.18,0 179.85,-53.9 179.84,-120.2 h -57.1 c 0,55.8 -34.08,101.2 -122.74,101.2 -88.67,0 -122.72,-45.4 -122.74,-101.2"
         style="fill:#dabc92;fill-opacity:1;fill-rule:nonzero;stroke:none"
         id="path2764"
         inkscape:connector-curvature="0" />
    </g>
    <g
       id="g2766"
       transform="matrix(0.2412051,0,0,-0.2412051,-617.07907,3961.1378)">
      <path
         d="m 2096.88,16179.8 c 0,-47 12.12,-78.3 124.65,-101.4 90.2,-21.9 177.92,-49.2 177.92,-120 0,-66.2 -80.66,-120.2 -179.83,-120.2 -99.17,0 -179.85,54 -179.85,120.2 h 57.11 c 0,-55.7 34.06,-101.1 122.74,-101.1 88.66,0 122.72,45.4 122.72,101.1 0,51.4 -24.29,76.9 -124.98,101.5 -82.5,16.9 -177.59,45.9 -177.59,119.9 0,66.3 80.68,120.2 179.85,120.2 99.17,0 179.85,-53.9 179.83,-120.2 h -57.11 c 0,55.8 -34.06,101.2 -122.72,101.2 -88.68,0 -122.73,-45.4 -122.74,-101.2"
         style="fill:#dabc92;fill-opacity:1;fill-rule:nonzero;stroke:none"
         id="path2768"
         inkscape:connector-curvature="0" />
    </g>
    <g
       id="g2770"
       transform="matrix(0.24104105,0,0,-0.24104105,-617.07907,3961.1378)">
      <path
         d="m 2535.53,16259.7 v -370.5 c 0,-14.2 3.86,-28.1 11.18,-40.3 v 0 h -78.18 c 7.33,12.2 11.19,26.1 11.19,40.3 v 370.5 c 0,14.2 -3.86,28.1 -11.19,40.3 h 78.18 c -7.32,-12.2 -11.17,-26.1 -11.18,-40.3"
         style="fill:#dabc92;fill-opacity:1;fill-rule:nonzero;stroke:none"
         id="path2772"
         inkscape:connector-curvature="0" />
    </g>
    <g
       id="g2774"
       transform="matrix(0.24120474,0,0,-0.24120474,-617.07907,3961.1378)">
      <path
         d="m 2667.31,16069.1 c 0,-116.8 56.94,-211.8 173.74,-211.8 71.27,0 106.04,35.4 122.34,89.5 l 40.84,-40.8 c -41.8,-41.8 -99.51,-67.7 -163.18,-67.7 -127.3,0 -230.85,103.5 -230.85,230.8 0,127.3 103.55,230.9 230.85,230.9 63.67,0 121.38,-25.9 163.18,-67.7 l -40.84,-40.8 c -16.3,54.1 -51.07,89.5 -122.34,89.5 -116.8,0 -173.74,-95.1 -173.74,-211.9"
         style="fill:#dabc92;fill-opacity:1;fill-rule:nonzero;stroke:none"
         id="path2776"
         inkscape:connector-curvature="0" />
    </g>
    <g
       id="g2778"
       transform="matrix(0.2410407,0,0,-0.2410407,-617.07907,3961.1378)">
      <path
         d="m 3297.15,16086.5 -58.55,170.5 -58.82,-170.5 z m 99.86,-225.7 8.84,-11.9 h -40.98 0.02 c 4.8,12 5.13,25.3 0.93,37.5 l -62.29,181.5 h -130.18 l -62.6,-181.5 c -4.2,-12.2 -3.87,-25.5 0.93,-37.5 h -78.2 l 8.87,11.9 c 3.32,4.5 5.91,9.4 7.73,14.6 l 132.93,385.4 c 4.51,13 2.93,27.4 -4.32,39.2 h 81.96 l -0.23,-0.4 c -6.68,-11.6 -8.04,-25.5 -3.69,-38.1 l 132.56,-386.1 c 1.8,-5.2 4.4,-10.2 7.72,-14.6"
         style="fill:#dabc92;fill-opacity:1;fill-rule:nonzero;stroke:none"
         id="path2780"
         inkscape:connector-curvature="0" />
    </g>
    <g
       id="g2782"
       transform="matrix(0.2412051,0,0,-0.2412051,-617.07907,3961.1378)">
      <path
         d="m 3699.89,16179.8 c 0,-47 12.11,-78.3 124.64,-101.4 90.2,-21.9 177.94,-49.2 177.94,-120 0,-66.2 -80.68,-120.2 -179.84,-120.2 -99.16,0 -179.85,54 -179.85,120.2 h 57.11 c 0,-55.7 34.07,-101.1 122.74,-101.1 88.66,0 122.72,45.4 122.72,101.1 0,51.4 -24.3,76.9 -124.99,101.5 -82.48,16.9 -177.58,45.9 -177.58,119.9 0,66.3 80.69,120.2 179.85,120.2 99.16,0 179.85,-53.9 179.84,-120.2 h -57.12 c 0,55.8 -34.06,101.2 -122.72,101.2 -88.67,0 -122.72,-45.4 -122.74,-101.2"
         style="fill:#dabc92;fill-opacity:1;fill-rule:nonzero;stroke:none"
         id="path2784"
         inkscape:connector-curvature="0" />
    </g>
    <g
       id="g2786"
       transform="matrix(0.2410407,0,0,-0.2410407,-617.07907,3961.1378)">
      <path
         d="m 4301.9,16086.5 -58.54,170.5 -58.83,-170.5 z m 99.86,-225.7 8.84,-11.9 h -40.98 0.02 c 4.8,12 5.13,25.3 0.95,37.5 l -62.31,181.5 H 4178.1 l -62.58,-181.5 c -4.22,-12.2 -3.89,-25.5 0.91,-37.5 h -78.19 l 8.87,11.9 c 3.31,4.5 5.91,9.4 7.71,14.6 l 132.94,385.4 c 4.51,13 2.93,27.4 -4.32,39.2 h 81.96 l -0.22,-0.4 c -6.69,-11.6 -8.03,-25.5 -3.69,-38.1 l 132.54,-386.1 c 1.82,-5.2 4.41,-10.2 7.73,-14.6"
         style="fill:#dabc92;fill-opacity:1;fill-rule:nonzero;stroke:none"
         id="path2788"
         inkscape:connector-curvature="0" />
    </g>
    <g
       id="g2790"
       transform="matrix(0.24104882,0,0,-0.24104882,-617.07907,3961.1378)">
      <path
         d="m 4657.07,16127.3 168.91,-278.7 h -22.32 l -163.46,270.7 c -44.82,-21.3 -87.05,-42.9 -115.8,-72.1 v -158.3 c 0,-14.2 3.87,-28.2 11.2,-40.3 h -78.2 c 7.34,12.1 11.22,26.1 11.22,40.3 v 370.4 c 0,14.2 -3.88,28.2 -11.22,40.3 h 78.2 c -7.33,-12.1 -11.2,-26.1 -11.2,-40.3 v -186.7 c 33.43,28.3 77.8,49.3 121.45,70 79.26,37.5 116.93,82.5 116.93,157.4 h 55.8 c 0,-85.5 -81.53,-134.8 -161.51,-172.7"
         style="fill:#dabc92;fill-opacity:1;fill-rule:nonzero;stroke:none"
         id="path2792"
         inkscape:connector-curvature="0" />
    </g>
    <g
       id="g2794"
       transform="matrix(0.2410407,0,0,-0.2410407,-617.07907,3961.1378)">
      <path
         d="m 5112.75,16086.5 -58.55,170.5 -58.83,-170.5 z m 99.85,-225.7 8.84,-11.9 h -40.98 0.02 c 4.8,12 5.14,25.3 0.95,37.5 l -62.3,181.5 h -130.19 l -62.59,-181.5 c -4.21,-12.2 -3.88,-25.5 0.92,-37.5 h -78.19 l 8.87,11.9 c 3.31,4.5 5.92,9.4 7.72,14.6 l 132.93,385.4 c 4.51,13 2.93,27.4 -4.32,39.2 h 81.96 l -0.23,-0.4 c -6.67,-11.6 -8.04,-25.5 -3.69,-38.1 l 132.56,-386.1 c 1.81,-5.2 4.4,-10.2 7.72,-14.6"
         style="fill:#dabc92;fill-opacity:1;fill-rule:nonzero;stroke:none"
         id="path2796"
         inkscape:connector-curvature="0" />
    </g>
    <g
       id="g2798"
       transform="matrix(0.24293865,0,0,-0.24293865,-617.07907,3961.1378)">
      <path
         d="m 1491.94,16299.6 -54.72,-75.5 -27.9,0.2 39.67,75.7 42.95,-0.4"
         style="fill:#dabc92;fill-opacity:1;fill-rule:nonzero;stroke:none"
         id="path2800"
         inkscape:connector-curvature="0" />
    </g>
  </g>
</svg>
