<?xml version="1.0" encoding="UTF-8" standalone="no"?>
<svg
   xmlns:dc="http://purl.org/dc/elements/1.1/"
   xmlns:cc="http://creativecommons.org/ns#"
   xmlns:rdf="http://www.w3.org/1999/02/22-rdf-syntax-ns#"
   xmlns:svg="http://www.w3.org/2000/svg"
   xmlns="http://www.w3.org/2000/svg"
   id="svg8"
   version="1.1"
   viewBox="0 0 52.916668 49.173153"
   height="49.173153mm"
   width="52.916668mm">
  <defs
     id="defs2" />
  <metadata
     id="metadata5">
    <rdf:RDF>
      <cc:Work
         rdf:about="">
        <dc:format>image/svg+xml</dc:format>
        <dc:type
           rdf:resource="http://purl.org/dc/dcmitype/StillImage" />
        <dc:title></dc:title>
      </cc:Work>
    </rdf:RDF>
  </metadata>
  <g
     transform="translate(-30.238096,-95.520568)"
     id="layer1">
    <g
       transform="matrix(0.33451123,0,0,0.33451123,23.277586,86.65602)"
       id="g829">
      <path
         style="fill:none"
         d="m 22.301,56.784 h 5.284 V 49.932 H 22.301 V 35.606 c 0,0 3.416,-1.869 10.89,-1.869 7.474,0 9.89,1.869 9.89,1.869 v 14.326 h -4.284 v 6.852 h 4.284 c 0,0 1,18.201 1,20.555 0,8.72 -10.89,16.195 -7.153,27.407 1.246,3.737 -2.066,4.72 -3.737,2.492 -3.737,-4.983 -10.89,-11.212 -10.89,-25.8 z"
         data-color="1"
         id="path815" />
      <path
         style="fill:none"
         d="M 63.914,61.425 44.402,61.96 v 12.426 l 19.512,0.535 z"
         data-color="2"
         id="path817" />
      <path
         style="fill:#000000"
         d="M 63.914,72.486 C 55.856,72.26 48.728,72.079 45.894,71.98 v -7.614 c 2.834,-0.099 9.962,-0.28 18.02,-0.506 V 59.921 C 55.935,60.14 48.742,60.312 45.572,60.403 V 56.784 A 2.492,2.492 0 0 0 43.08,54.292 h -1.793 v -1.869 h 1.793 a 2.492,2.492 0 0 0 2.492,-2.492 V 36.606 A 2.49,2.49 0 0 0 44.276,34.42 c -0.408,-0.223 -3.203,-2.174 -11.087,-2.174 -7.885,0 -10.784,1.532 -11.19,1.754 -0.799,0.438 -1.191,1.696 -1.191,2.606 v 13.326 c 0,1.376 0.116,2.492 1.492,2.492 h 2.792 v 1.869 H 22.3 c -1.376,0 -1.492,1.116 -1.492,2.492 v 24.654 c 0,13.351 4.797,19.419 8.633,24.096 0.634,0.773 1.23,1.498 1.756,2.198 a 5.39,5.39 0 0 0 4.131,2.176 C 38,110 39.139,107.376 38,103.957 36.136,98.367 38.911,93.8 41.54,88.965 c 1.983,-3.648 4.033,-7.42 4.033,-11.627 v -1.396 c 3.17,0.091 10.362,0.263 18.342,0.482 V 72.486 Z M 41.59,77.339 c 0,2.94 -1.666,6.004 -3.428,9.246 -2.759,5.076 -5.87,10.798 -3.889,17.988 a 149.5,149.5 0 0 0 -0.977,-1.198 C 29.508,98.755 24.793,93.006 24.793,81.438 V 59.275 h 2.792 a 2.492,2.492 0 0 0 2.492,-2.492 V 49.931 A 2.492,2.492 0 0 0 27.585,47.439 H 24.793 V 37.308 c 1.487,-0.461 4.249,-1.079 8.398,-1.079 4.155,0 6.92,0.619 8.399,1.078 v 10.134 h -2.793 a 2.492,2.492 0 0 0 -2.492,2.492 v 6.852 a 2.492,2.492 0 0 0 2.492,2.492 h 2.793 z"
         data-color="3"
         id="path819" />
      <path
         style="fill:none"
         d="m 115.826,63.873 h -41.11 c -6.229,0 -11.212,4.983 -11.212,9.966 v 13.703 c 0,8.594 5.338,21.336 16.01,28.414 l -1.061,55.675 h 41.11 l -1.086,-56.997 c 9.455,-6.756 14.789,-17.927 14.789,-29.584 V 63.249 Z"
         data-color="4"
         id="path821" />
      <path
         style="fill:none"
         d="m 168.179,58.653 c -1.121,0 -35.432,0.352 -52.375,0.827 v 14.502 c 0,1.017 -0.117,1.98 -0.358,2.875 17.027,0.48 51.605,0.837 52.734,0.837 a 9.52,9.52 0 0 0 9.52,-9.52 c -10e-4,-5.259 -4.263,-9.521 -9.521,-9.521 z"
         data-color="2"
         id="path823" />
      <path
         style="fill:none"
         d="m 124.546,37.089 c -4.816,0 -8.72,3.971 -8.72,8.87 v -4.983 c 0,-4.899 -3.904,-8.87 -8.72,-8.87 -4.816,0 -8.72,3.971 -8.72,8.87 v -3.737 c 0,-4.899 -3.904,-8.87 -8.72,-8.87 -4.816,0 -8.72,3.971 -8.72,8.87 v 8.248 c 0,-4.899 -3.904,-8.87 -8.72,-8.87 -4.816,0 -8.72,3.971 -8.72,8.87 v 26.484 h 0.229 c 1.043,-4.288 5.537,-8.097 10.983,-8.097 h 6.229 v -0.15 h 34.882 v -1.246 c 0,4.899 3.904,8.87 8.72,8.87 4.816,0 8.72,-3.972 8.72,-8.87 V 45.96 c -0.003,-4.9 -3.907,-8.871 -8.723,-8.871 z"
         data-color="4"
         id="path825" />
      <path
         style="fill:#000000"
         d="m 168.179,57.161 c -0.882,0.024 -17.366,0.169 -33.044,0.427 V 45.959 c 0,-5.921 -4.751,-10.739 -10.589,-10.739 -2.8,0 -5.342,1.116 -7.238,2.922 -1.23,-4.549 -5.333,-7.905 -10.203,-7.905 -2.951,0 -5.622,1.234 -7.544,3.216 -1.514,-4.056 -5.373,-6.953 -9.897,-6.953 -5.838,0 -10.589,4.818 -10.589,10.739 v 0.075 a 10.447,10.447 0 0 0 -6.852,-2.566 c -5.838,0 -10.589,4.818 -10.589,10.74 v 41.805 c 0,9.628 5.572,22.103 15.995,29.413 l -1.045,54.89 a 1.87,1.87 0 0 0 1.868,1.904 h 41.11 a 1.866,1.866 0 0 0 1.868,-1.904 l -1.071,-56.241 c 9.692,-7.375 14.775,-19.181 14.775,-30.554 v -6.05 c 15.811,0.262 32.151,0.433 33.044,0.433 6.623,0 10.821,-4.388 10.821,-11.011 C 179,61.549 174,57 168.179,57.161 Z m -50.485,4.594 V 45.959 c 0,-3.86 3.074,-7.001 6.852,-7.001 3.777,0 6.852,3.141 6.852,7.001 v 16.519 c 0,3.86 -3.074,7.001 -6.852,7.001 -3.777,0 -6.852,-3.141 -6.852,-7.001 z m -17.44,-20.779 c 0,-3.86 3.074,-7.001 6.852,-7.001 3.778,0 6.852,3.141 6.852,7.001 V 61.755 H 100.255 V 40.976 Z m -17.441,4.511 v -8.248 c 0,-3.86 3.074,-7.001 6.852,-7.001 3.778,0 6.852,3.141 6.852,7.001 V 61.755 H 82.813 Z m -17.441,0 c 0,-3.861 3.074,-7.003 6.852,-7.003 3.778,0 6.852,3.141 6.852,7.003 v 16.268 h -4.36 c -3.581,0 -6.928,1.466 -9.343,3.741 V 45.487 Z m 52.286,124.276 h -37.3 l 0.967,-50.804 c 4.543,2.388 9.824,3.839 15.814,3.839 7.611,0 14.137,-1.866 19.53,-4.982 z m 13.74,-84.961 c 0,16.607 -12.006,34.258 -34.258,34.258 -21.151,0 -31.767,-20.365 -31.767,-31.767 V 73.59 c 0,-3.822 3.995,-8.097 9.343,-8.097 h 4.36 v 0.1 h 34.881 v 7.998 c 0,1.82 0,5.606 -10.589,5.606 H 84.502 a 1.86,1.86 0 0 0 -2.192,1.151 1.883,1.883 0 0 0 -0.115,0.672 c 0,0.016 -0.005,0.03 -0.005,0.046 l 0.001,0.012 10e-4,0.01 c 0.011,0.92 0.686,1.674 1.569,1.817 8.838,3.501 12.892,11.888 12.932,11.973 a 1.87,1.87 0 0 0 2.483,0.9 1.87,1.87 0 0 0 0.903,-2.484 c -0.145,-0.31 -2.833,-5.929 -8.712,-10.359 h 12.002 C 105.938,82.933 113,83 116,78 c 4.481,0.121 9.618,0.586 15.398,0.688 z m 36.781,-9.6 c -0.871,0 -32.907,-0.323 -50.547,-0.779 0.021,-0.277 0.062,-0.537 0.062,-0.833 v -2.94 a 10.447,10.447 0 0 0 6.852,2.566 c 5.838,0 10.589,-4.818 10.589,-10.739 V 61.57 c 15.847,-0.261 32.424,-0.426 33.044,-0.426 3.875,0 7.028,3.153 7.028,7.029 0,3.875 -3.153,7.029 -7.028,7.029 z"
         data-color="3"
         id="path827" />
      <path
         id="path847"
         data-color="1"
         d="m 22.301,56.784 h 5.284 V 49.932 H 22.301 V 35.606 c 0,0 3.416,-1.869 10.89,-1.869 7.474,0 9.89,1.869 9.89,1.869 v 14.326 h -4.284 v 6.852 h 4.284 c 0,0 1,18.201 1,20.555 0,8.72 -10.89,16.195 -7.153,27.407 1.246,3.737 -2.066,4.72 -3.737,2.492 -3.737,-4.983 -10.89,-11.212 -10.89,-25.8 z"
         style="fill:none" />
      <path
         id="path849"
         data-color="2"
         d="M 63.914,61.425 44.402,61.96 v 12.426 l 19.512,0.535 z"
         style="fill:none" />
      <path
         id="path851"
         data-color="3"
         d="M 63.914,72.486 C 55.856,72.26 48.728,72.079 45.894,71.98 v -7.614 c 2.834,-0.099 9.962,-0.28 18.02,-0.506 V 59.921 C 55.935,60.14 48.742,60.312 45.572,60.403 V 56.784 A 2.492,2.492 0 0 0 43.08,54.292 h -1.793 v -1.869 h 1.793 a 2.492,2.492 0 0 0 2.492,-2.492 V 36.606 A 2.49,2.49 0 0 0 44.276,34.42 c -0.408,-0.223 -3.203,-2.174 -11.087,-2.174 -7.885,0 -10.784,1.532 -11.19,1.754 -0.799,0.438 -1.191,1.696 -1.191,2.606 v 13.326 c 0,1.376 0.116,2.492 1.492,2.492 h 2.792 v 1.869 H 22.3 c -1.376,0 -1.492,1.116 -1.492,2.492 v 24.654 c 0,13.351 4.797,19.419 8.633,24.096 0.634,0.773 1.23,1.498 1.756,2.198 a 5.39,5.39 0 0 0 4.131,2.176 C 38,110 39.139,107.376 38,103.957 36.136,98.367 38.911,93.8 41.54,88.965 c 1.983,-3.648 4.033,-7.42 4.033,-11.627 v -1.396 c 3.17,0.091 10.362,0.263 18.342,0.482 V 72.486 Z M 41.59,77.339 c 0,2.94 -1.666,6.004 -3.428,9.246 -2.759,5.076 -5.87,10.798 -3.889,17.988 a 149.5,149.5 0 0 0 -0.977,-1.198 C 29.508,98.755 24.793,93.006 24.793,81.438 V 59.275 h 2.792 a 2.492,2.492 0 0 0 2.492,-2.492 V 49.931 A 2.492,2.492 0 0 0 27.585,47.439 H 24.793 V 37.308 c 1.487,-0.461 4.249,-1.079 8.398,-1.079 4.155,0 6.92,0.619 8.399,1.078 v 10.134 h -2.793 a 2.492,2.492 0 0 0 -2.492,2.492 v 6.852 a 2.492,2.492 0 0 0 2.492,2.492 h 2.793 z"
         style="fill:#000000" />
      <path
         id="path853"
         data-color="4"
         d="m 115.826,63.873 h -41.11 c -6.229,0 -11.212,4.983 -11.212,9.966 v 13.703 c 0,8.594 5.338,21.336 16.01,28.414 l -1.061,55.675 h 41.11 l -1.086,-56.997 c 9.455,-6.756 14.789,-17.927 14.789,-29.584 V 63.249 Z"
         style="fill:none" />
      <path
         id="path855"
         data-color="2"
         d="m 168.179,58.653 c -1.121,0 -35.432,0.352 -52.375,0.827 v 14.502 c 0,1.017 -0.117,1.98 -0.358,2.875 17.027,0.48 51.605,0.837 52.734,0.837 a 9.52,9.52 0 0 0 9.52,-9.52 c -10e-4,-5.259 -4.263,-9.521 -9.521,-9.521 z"
         style="fill:none" />
      <path
         id="path857"
         data-color="4"
         d="m 124.546,37.089 c -4.816,0 -8.72,3.971 -8.72,8.87 v -4.983 c 0,-4.899 -3.904,-8.87 -8.72,-8.87 -4.816,0 -8.72,3.971 -8.72,8.87 v -3.737 c 0,-4.899 -3.904,-8.87 -8.72,-8.87 -4.816,0 -8.72,3.971 -8.72,8.87 v 8.248 c 0,-4.899 -3.904,-8.87 -8.72,-8.87 -4.816,0 -8.72,3.971 -8.72,8.87 v 26.484 h 0.229 c 1.043,-4.288 5.537,-8.097 10.983,-8.097 h 6.229 v -0.15 h 34.882 v -1.246 c 0,4.899 3.904,8.87 8.72,8.87 4.816,0 8.72,-3.972 8.72,-8.87 V 45.96 c -0.003,-4.9 -3.907,-8.871 -8.723,-8.871 z"
         style="fill:none" />
      <path
         id="path859"
         data-color="3"
         d="m 168.179,57.161 c -0.882,0.024 -17.366,0.169 -33.044,0.427 V 45.959 c 0,-5.921 -4.751,-10.739 -10.589,-10.739 -2.8,0 -5.342,1.116 -7.238,2.922 -1.23,-4.549 -5.333,-7.905 -10.203,-7.905 -2.951,0 -5.622,1.234 -7.544,3.216 -1.514,-4.056 -5.373,-6.953 -9.897,-6.953 -5.838,0 -10.589,4.818 -10.589,10.739 v 0.075 a 10.447,10.447 0 0 0 -6.852,-2.566 c -5.838,0 -10.589,4.818 -10.589,10.74 v 41.805 c 0,9.628 5.572,22.103 15.995,29.413 l -1.045,54.89 a 1.87,1.87 0 0 0 1.868,1.904 h 41.11 a 1.866,1.866 0 0 0 1.868,-1.904 l -1.071,-56.241 c 9.692,-7.375 14.775,-19.181 14.775,-30.554 v -6.05 c 15.811,0.262 32.151,0.433 33.044,0.433 6.623,0 10.821,-4.388 10.821,-11.011 C 179,61.549 174,57 168.179,57.161 Z m -50.485,4.594 V 45.959 c 0,-3.86 3.074,-7.001 6.852,-7.001 3.777,0 6.852,3.141 6.852,7.001 v 16.519 c 0,3.86 -3.074,7.001 -6.852,7.001 -3.777,0 -6.852,-3.141 -6.852,-7.001 z m -17.44,-20.779 c 0,-3.86 3.074,-7.001 6.852,-7.001 3.778,0 6.852,3.141 6.852,7.001 V 61.755 H 100.255 V 40.976 Z m -17.441,4.511 v -8.248 c 0,-3.86 3.074,-7.001 6.852,-7.001 3.778,0 6.852,3.141 6.852,7.001 V 61.755 H 82.813 Z m -17.441,0 c 0,-3.861 3.074,-7.003 6.852,-7.003 3.778,0 6.852,3.141 6.852,7.003 v 16.268 h -4.36 c -3.581,0 -6.928,1.466 -9.343,3.741 V 45.487 Z m 52.286,124.276 h -37.3 l 0.967,-50.804 c 4.543,2.388 9.824,3.839 15.814,3.839 7.611,0 14.137,-1.866 19.53,-4.982 z m 13.74,-84.961 c 0,16.607 -12.006,34.258 -34.258,34.258 -21.151,0 -31.767,-20.365 -31.767,-31.767 V 73.59 c 0,-3.822 3.995,-8.097 9.343,-8.097 h 4.36 v 0.1 h 34.881 v 7.998 c 0,1.82 0,5.606 -10.589,5.606 H 84.502 a 1.86,1.86 0 0 0 -2.192,1.151 1.883,1.883 0 0 0 -0.115,0.672 c 0,0.016 -0.005,0.03 -0.005,0.046 l 0.001,0.012 10e-4,0.01 c 0.011,0.92 0.686,1.674 1.569,1.817 8.838,3.501 12.892,11.888 12.932,11.973 a 1.87,1.87 0 0 0 2.483,0.9 1.87,1.87 0 0 0 0.903,-2.484 c -0.145,-0.31 -2.833,-5.929 -8.712,-10.359 h 12.002 C 105.938,82.933 113,83 116,78 c 4.481,0.121 9.618,0.586 15.398,0.688 z m 36.781,-9.6 c -0.871,0 -32.907,-0.323 -50.547,-0.779 0.021,-0.277 0.062,-0.537 0.062,-0.833 v -2.94 a 10.447,10.447 0 0 0 6.852,2.566 c 5.838,0 10.589,-4.818 10.589,-10.739 V 61.57 c 15.847,-0.261 32.424,-0.426 33.044,-0.426 3.875,0 7.028,3.153 7.028,7.029 0,3.875 -3.153,7.029 -7.028,7.029 z"
         style="fill:#000000" />
    </g>
  </g>
</svg>
