<?xml version="1.0" encoding="UTF-8" standalone="no"?>
<!-- Created with Inkscape (http://www.inkscape.org/) -->

<svg
   xmlns:dc="http://purl.org/dc/elements/1.1/"
   xmlns:cc="http://creativecommons.org/ns#"
   xmlns:rdf="http://www.w3.org/1999/02/22-rdf-syntax-ns#"
   xmlns:svg="http://www.w3.org/2000/svg"
   xmlns="http://www.w3.org/2000/svg"
   xmlns:sodipodi="http://sodipodi.sourceforge.net/DTD/sodipodi-0.dtd"
   xmlns:inkscape="http://www.inkscape.org/namespaces/inkscape"
   width="335.74664mm"
   height="329.26263mm"
   viewBox="0 0 335.74664 329.26263"
   version="1.1"
   id="svg49861"
   inkscape:version="0.92.5 (2060ec1f9f, 2020-04-08)"
   sodipodi:docname="selo-color2.svg">
  <defs
     id="defs49855" />
  <sodipodi:namedview
     id="base"
     pagecolor="#ffffff"
     bordercolor="#666666"
     borderopacity="1.0"
     inkscape:pageopacity="0.0"
     inkscape:pageshadow="2"
     inkscape:zoom="0.35"
     inkscape:cx="1254.4819"
     inkscape:cy="196.51422"
     inkscape:document-units="mm"
     inkscape:current-layer="layer1"
     showgrid="false"
     inkscape:window-width="1600"
     inkscape:window-height="855"
     inkscape:window-x="1366"
     inkscape:window-y="0"
     inkscape:window-maximized="1" />
  <metadata
     id="metadata49858">
    <rdf:RDF>
      <cc:Work
         rdf:about="">
        <dc:format>image/svg+xml</dc:format>
        <dc:type
           rdf:resource="http://purl.org/dc/dcmitype/StillImage" />
        <dc:title></dc:title>
      </cc:Work>
    </rdf:RDF>
  </metadata>
  <g
     inkscape:label="Camada 1"
     inkscape:groupmode="layer"
     id="layer1"
     transform="translate(387.85547,128.43492)">
    <g
       id="g2950"
       transform="matrix(0.17298387,0,0,-0.17298387,-930.81535,2954.0646)">
      <path
         d="m 3623,16287.6 -38.28,-7.5 -8.48,8 33.71,11.9 13.05,-12.4"
         style="fill:#dabc92;fill-opacity:1;fill-rule:nonzero;stroke:none"
         id="path2952"
         inkscape:connector-curvature="0" />
    </g>
    <g
       id="g2954"
       transform="matrix(0.17568086,0,0,-0.17568086,-930.81535,2954.0646)">
      <path
         d="m 3255.99,16239.1 c -13.7,-11.3 -33.96,-9.4 -45.3,4.3 -11.33,13.6 -9.44,33.9 4.23,45.3 13.7,11.3 33.98,9.4 45.3,-4.3 11.35,-13.7 9.44,-33.9 -4.23,-45.3"
         style="fill:#dabc92;fill-opacity:1;fill-rule:nonzero;stroke:none"
         id="path2956"
         inkscape:connector-curvature="0" />
    </g>
    <g
       id="g2958"
       transform="matrix(0.1786957,0,0,-0.1786957,-930.81535,2954.0646)">
      <path
         d="m 3102.5,16280.6 c -40.78,-2.8 -53.73,-28.5 -52.23,-50.1 l 1.16,-17 111.11,7.7 -1.19,17 c -1.63,23.5 -18.28,45.2 -58.85,42.4 z m 67.6,-39.3 2.55,-36.7 c 0,0 -1.58,1.4 -5,1.1 l -59.89,-4.1 -60.12,-4.2 c -2.76,-0.2 -3.93,-1.8 -3.93,-1.8 l -2.46,35.7 c -2.67,38.5 23.07,64.2 59.83,66.7 28.67,2 66.02,-13.3 69.02,-56.7"
         style="fill:#dabc92;fill-opacity:1;fill-rule:nonzero;stroke:none"
         id="path2960"
         inkscape:connector-curvature="0" />
    </g>
    <g
       id="g2962"
       transform="matrix(0.1802518,0,0,-0.1802518,-930.81535,2954.0646)">
      <path
         d="m 3136.75,16288.6 10.92,-1.1 -7.69,-78.8 c -0.69,1.8 -2.98,2.2 -5.5,2.5 l -116.59,11.4 c -2.31,0.2 -4.85,0.2 -5.66,-1.4 l 7.7,78.8 10.94,-1.1 c -1.37,-0.9 -1.37,-3 -1.61,-5.6 l -6.48,-55.3 48.76,-4.8 c 0,0 -2.76,4.5 -1.96,12.7 l 4.28,43.9 8.21,-0.8 -4.29,-43.9 c -0.8,-8.2 3.83,-12.9 7.61,-13.2 l 47.48,-4.7 4.37,55.6 c 0.25,2.5 0.45,4.6 -0.49,5.8"
         style="fill:#dabc92;fill-opacity:1;fill-rule:nonzero;stroke:none"
         id="path2964"
         inkscape:connector-curvature="0" />
    </g>
    <g
       id="g2966"
       transform="matrix(0.1818206,0,0,-0.1818206,-930.81535,2954.0646)">
      <path
         d="m 3119.09,16285.5 c 19.21,-5.1 28.52,-27.1 22.22,-50.7 -6.56,-24.7 -26.22,-38.3 -26.22,-38.3 l -11.97,11.2 c 0,0 24.9,7.2 30.72,29 5.49,20.7 -6.83,28.9 -16.13,31.4 -29.72,7.9 -40.2,-55.8 -83.87,-44.1 -20.84,5.5 -25.44,26.4 -20.53,44.9 6.13,23 24.52,31.1 24.52,31.1 l 11.82,-10.9 c 0,0 -23.75,-3 -28.87,-22.2 -4.15,-15.6 6.75,-23.5 12.2,-25 41.66,-11 41.21,55.6 86.11,43.6"
         style="fill:#dabc92;fill-opacity:1;fill-rule:nonzero;stroke:none"
         id="path2968"
         inkscape:connector-curvature="0" />
    </g>
    <g
       id="g2970"
       transform="matrix(0.18279568,0,0,-0.18279568,-930.81535,2954.0646)">
      <path
         d="m 3152.9,16253 c 1.93,-0.8 3.59,-1.7 5.56,-0.7 l -6.93,-17 c -0.7,1.7 -2.61,2.5 -4.54,3.2 l -106.53,43.6 c -1.93,0.8 -3.86,1.6 -5.48,0.9 l 6.93,17 c 0.58,-1.4 2.53,-2.6 4.46,-3.4 l 106.53,-43.6"
         style="fill:#dabc92;fill-opacity:1;fill-rule:nonzero;stroke:none"
         id="path2972"
         inkscape:connector-curvature="0" />
    </g>
    <g
       id="g2974"
       transform="matrix(0.18441705,0,0,-0.18441705,-930.81535,2954.0646)">
      <path
         d="m 3194.98,16246.8 c 0,0 0.44,-17.3 -13.31,-40.8 -10.2,-17.4 -36.75,-50.2 -86.62,-21 -50.06,29.3 -34.8,68.8 -24.69,86.1 10.1,17.3 21.08,25.5 33.61,28.9 l 5.16,-12.8 c -11.48,-1.7 -22.34,-5.1 -31.51,-20.8 -14.67,-25.1 0.39,-52.1 25.87,-67 25.29,-14.8 55.82,-14.5 70.49,10.7 10.73,18.3 9.2,25.9 9.2,25.9 l -32.42,18.9 c -1.78,1.1 -3.66,1.9 -5.36,1.5 l 9.16,15.7 c 0.19,-1.3 2.13,-2.9 3.91,-4 l 36.51,-21.3"
         style="fill:#dabc92;fill-opacity:1;fill-rule:nonzero;stroke:none"
         id="path2976"
         inkscape:connector-curvature="0" />
    </g>
    <g
       id="g2978"
       transform="matrix(0.18598726,0,0,-0.18598726,-930.81535,2954.0646)">
      <path
         d="m 3266.78,16218.5 -11.42,-13.1 -119.84,20.1 74.01,-64.5 c 1.56,-1.4 2.67,-2.9 5.24,-2.1 l -12.66,-14.5 c 0.4,2.6 -1.11,3.7 -2.65,5 l -85.91,74.9 c -1.53,1.3 -2.79,2.7 -5.35,1.9 l 11.42,13.1 118.76,-19.1 -72.32,63.1 c -1.69,1.4 -3.08,2.4 -5.79,1.7 l 13.05,15 c -0.25,-2.8 1.12,-3.7 2.83,-5.2 l 85.73,-74.7 c 1.54,-1.4 2.18,-2.2 4.9,-1.6"
         style="fill:#dabc92;fill-opacity:1;fill-rule:nonzero;stroke:none"
         id="path2980"
         inkscape:connector-curvature="0" />
    </g>
    <g
       id="g2982"
       transform="matrix(0.1870717,0,0,-0.1870717,-930.81535,2954.0646)">
      <path
         d="m 3334.12,16212.3 6.67,-8.2 -59.16,-48.2 c 0.74,1.7 -0.5,3.5 -2.05,5.4 l -71.25,87.6 c -1.41,1.7 -3.11,3.5 -4.77,3 l 59.18,48.1 6.67,-8.2 c -1.56,0.3 -3.01,-1.1 -4.9,-2.7 l -42.3,-33.1 29.8,-36.6 c 0,0 1.22,4.9 7.37,9.9 l 32.98,26.9 5,-6.2 -32.96,-26.8 c -6.17,-5 -6.24,-11.4 -3.92,-14.2 l 29.02,-35.7 40.99,34.7 c 1.91,1.6 3.47,2.8 3.63,4.3"
         style="fill:#dabc92;fill-opacity:1;fill-rule:nonzero;stroke:none"
         id="path2984"
         inkscape:connector-curvature="0" />
    </g>
    <g
       id="g2986"
       transform="matrix(0.18790532,0,0,-0.18790532,-930.81535,2954.0646)">
      <path
         d="m 3360.14,16235.6 c 4.94,2.8 23.79,15.5 12.93,34.7 -9.87,17.5 -26.32,11.2 -31.42,8.3 l -19.23,-10.8 -0.36,-0.2 22.91,-40.6 z m 65.18,-36 -62.78,27.6 -13.38,-7.6 26.88,-47.6 c 1,-1.7 1.54,-3.5 4.17,-3.7 l -16.75,-9.4 c 1.24,2.3 0.17,3.8 -0.82,5.5 l -54.98,97.4 c -2.47,4.4 -4.41,4.9 -4.41,4.9 l 34.83,19.5 c 12.88,7.2 35.22,13.8 47.85,-8.6 13.15,-23.3 -10.6,-41.3 -10.6,-41.3 l 72.86,-29.8 -20.28,-11.5 c 1.07,2.3 0.12,3.1 -2.59,4.6"
         style="fill:#dabc92;fill-opacity:1;fill-rule:nonzero;stroke:none"
         id="path2988"
         inkscape:connector-curvature="0" />
    </g>
    <g
       id="g2990"
       transform="matrix(0.18892026,0,0,-0.18892026,-930.81535,2954.0646)">
      <path
         d="m 3613.52,16241.7 c -8.27,37.8 -34.08,46.3 -54.15,41.9 l -15.73,-3.4 22.58,-102.9 15.74,3.4 c 21.83,4.8 39.81,23.4 31.56,61 z m -27.39,-68.7 -34.05,-7.5 c 0,0 1.09,1.7 0.4,4.9 l -12.18,55.4 -12.21,55.7 c -0.56,2.6 -2.2,3.4 -2.2,3.4 l 33.05,7.3 c 35.61,7.8 63.21,-12.7 70.68,-46.8 5.82,-26.5 -3.36,-63.6 -43.49,-72.4"
         style="fill:#dabc92;fill-opacity:1;fill-rule:nonzero;stroke:none"
         id="path2992"
         inkscape:connector-curvature="0" />
    </g>
    <g
       id="g2994"
       transform="matrix(0.1891104,0,0,-0.1891104,-930.81535,2954.0646)">
      <path
         d="m 3758.38,16188.3 0.5,-10.5 -75.36,-3.6 c 1.56,0.9 1.66,3.1 1.54,5.5 l -5.29,111.6 c -0.12,2.2 -0.43,4.6 -2.08,5.1 l 75.37,3.6 0.5,-10.4 c -1.06,1.1 -3.06,0.8 -5.46,0.7 l -53.11,-1.5 2.22,-46.6 c 0,0 3.88,3.2 11.71,3.5 l 41.99,2 0.38,-7.8 -41.99,-2 c -7.84,-0.4 -11.64,-5.4 -11.46,-9 l 2.15,-45.4 53.01,3.5 c 2.41,0.1 4.42,0.2 5.38,1.3"
         style="fill:#dabc92;fill-opacity:1;fill-rule:nonzero;stroke:none"
         id="path2996"
         inkscape:connector-curvature="0" />
    </g>
    <g
       id="g2998"
       transform="matrix(0.18892696,0,0,-0.18892696,-930.81535,2954.0646)">
      <path
         d="m 3916.17,16182.4 c -0.39,-2 -0.93,-3.7 0.37,-5.4 l -17.38,3.4 c 1.4,0.9 1.79,2.9 2.17,4.9 l 21.13,109.3 c 0.39,2 0.77,4 -0.18,5.4 l 17.4,-3.4 c -1.18,-0.8 -2,-2.9 -2.37,-4.9 l -21.14,-109.3"
         style="fill:#dabc92;fill-opacity:1;fill-rule:nonzero;stroke:none"
         id="path3000"
         inkscape:connector-curvature="0" />
    </g>
    <g
       id="g3002"
       transform="matrix(0.18873611,0,0,-0.18873611,-930.81535,2954.0646)">
      <path
         d="m 4058.95,16152.5 -16.2,5.5 -26.43,116.8 -31.24,-91.6 c -0.65,-1.9 -1.6,-3.5 0.02,-5.5 l -17.92,6.1 c 2.54,0.6 2.95,2.4 3.59,4.3 l 36.24,106.3 c 0.65,1.9 1.44,3.5 -0.21,5.6 l 16.21,-5.5 26.88,-115.5 30.52,89.5 c 0.71,2.1 1.05,3.7 -0.54,5.9 l 18.52,-6.3 c -2.61,-0.8 -2.95,-2.4 -3.66,-4.5 l -36.19,-106.1 c -0.63,-1.9 -1.16,-2.8 0.41,-5"
         style="fill:#dabc92;fill-opacity:1;fill-rule:nonzero;stroke:none"
         id="path3004"
         inkscape:connector-curvature="0" />
    </g>
    <g
       id="g3006"
       transform="matrix(0.18809969,0,0,-0.18809969,-930.81535,2954.0646)">
      <path
         d="m 4257.64,16249 -5.12,-9.2 c -0.46,1.7 -2.32,2.5 -4.27,3.6 l -34.16,20.1 -53.03,-95.2 c -1.69,-3 -1.26,-5.6 -1.26,-5.6 l -16.26,9.1 c 1.82,-0.1 3.08,1.7 4.26,3.9 l 53.05,95.2 -34.6,18.1 c -1.95,1.1 -3.62,2.3 -5.27,1.8 l 5.12,9.2 91.54,-51"
         style="fill:#dabc92;fill-opacity:1;fill-rule:nonzero;stroke:none"
         id="path3008"
         inkscape:connector-curvature="0" />
    </g>
    <g
       id="g3010"
       transform="matrix(0.18713203,0,0,-0.18713203,-930.81535,2954.0646)">
      <path
         d="m 4315.91,16164.1 -6.58,-8.3 -59.63,47.5 c 1.78,-0.3 3.34,1.3 4.85,3.2 l 70.35,88.2 c 1.4,1.8 2.78,3.8 1.87,5.3 l 59.63,-47.5 -6.6,-8.3 c -0.02,1.6 -1.73,2.7 -3.66,4.2 l -41.34,34.3 -29.41,-36.9 c 0,0 5.09,-0.2 11.29,-5.1 l 33.24,-26.5 -4.96,-6.2 -33.21,26.5 c -6.21,4.9 -12.45,3.7 -14.73,0.8 l -28.63,-35.9 42.6,-32.7 c 1.91,-1.5 3.51,-2.8 4.92,-2.6"
         style="fill:#dabc92;fill-opacity:1;fill-rule:nonzero;stroke:none"
         id="path3012"
         inkscape:connector-curvature="0" />
    </g>
    <g
       id="g3014"
       transform="matrix(0.18606382,0,0,-0.18606382,-930.81535,2954.0646)">
      <path
         d="m 4443.46,16237.2 c 3.81,-4.3 20.43,-20.2 37.06,-5.3 15.09,13.5 5.35,28.4 1.41,32.8 l -14.87,16.6 -0.27,0.3 -35.07,-31.3 z m -21.43,-72.1 13.65,67.9 -10.35,11.6 -41.16,-36.8 c -1.54,-1.4 -3.19,-2.3 -2.75,-5 l -12.95,14.5 c 2.58,-0.7 3.81,0.7 5.33,2 l 84.16,75.3 c 3.81,3.4 3.92,5.4 3.92,5.4 l 26.7,-30.2 c 9.95,-11.1 21.25,-31.7 1.9,-49 -20.14,-18 -43.08,1.5 -43.08,1.5 l -13.65,-78.3 -15.68,17.5 c 2.42,-0.5 3.07,0.6 3.96,3.6"
         style="fill:#dabc92;fill-opacity:1;fill-rule:nonzero;stroke:none"
         id="path3016"
         inkscape:connector-curvature="0" />
    </g>
    <g
       id="g3018"
       transform="matrix(0.18465729,0,0,-0.18465729,-930.81535,2954.0646)">
      <path
         d="m 4506.55,16219.2 c -1.72,-1.1 -3.36,-2 -3.63,-4.2 l -10.18,15 c 1.72,-0.3 3.42,0.9 5.14,2 l 94.32,64 c 1.7,1.1 3.4,2.3 3.72,4 l 10.18,-15 c -1.43,0.3 -3.53,-0.7 -5.25,-1.8 l -94.3,-64"
         style="fill:#dabc92;fill-opacity:1;fill-rule:nonzero;stroke:none"
         id="path3020"
         inkscape:connector-curvature="0" />
    </g>
    <g
       id="g3022"
       transform="matrix(0.18391928,0,0,-0.18391928,-930.81535,2954.0646)">
      <path
         d="m 4621.29,16258.1 c -54.96,-11.2 -46.33,-50.7 -45.38,-55 0.95,-4.4 9.32,-43.8 63.62,-32.6 54.03,11.3 46.17,53.4 46.01,55.2 -0.44,1.8 -9.39,43.9 -64.25,32.4 z m -49.07,-71.7 c 0,0 -31.17,53.4 31.48,83.5 62.64,30.1 85.26,-27.4 85.26,-27.4 0.08,-0.2 31,-53.5 -31.84,-83.8 -62.84,-30.1 -84.9,27.7 -84.9,27.7"
         style="fill:#dabc92;fill-opacity:1;fill-rule:nonzero;stroke:none"
         id="path3024"
         inkscape:connector-curvature="0" />
    </g>
    <g
       id="g3026"
       transform="matrix(0.18190492,0,0,-0.18190492,-930.81535,2954.0646)">
      <path
         d="m 4742.77,16251.5 c 1.47,-5.6 9.15,-27.9 31.22,-22.2 20.05,5.2 18.19,23.3 16.66,29.2 l -5.7,22.1 -0.1,0.4 -46.58,-12.1 z m -53.28,-55.4 44.24,55.2 -3.97,15.4 -54.68,-14.1 c -2.03,-0.5 -3.95,-0.6 -4.79,-3.2 l -4.98,19.3 c 2,-1.9 3.76,-1.2 5.78,-0.7 l 111.8,28.9 c 5.07,1.3 6.11,3.1 6.11,3.1 l 10.13,-40 c 3.82,-14.7 4.42,-38.8 -21.3,-45.4 -26.74,-7 -38.44,21.6 -38.44,21.6 l -49.14,-64.8 -6.03,23.3 c 1.94,-1.7 3.06,-1 5.27,1.4"
         style="fill:#dabc92;fill-opacity:1;fill-rule:nonzero;stroke:none"
         id="path3028"
         inkscape:connector-curvature="0" />
    </g>
    <g
       id="g3030"
       transform="matrix(0.18010893,0,0,-0.18010893,-930.81535,2954.0646)">
      <path
         d="m 4760.78,16211.3 -10.95,-1 -6.6,79 c 0.98,-1.6 3.31,-1.6 5.83,-1.4 l 116.84,9.7 c 2.31,0.2 4.84,0.7 5.33,2.4 l 6.6,-78.9 -10.95,-1 c 1.17,1.2 0.78,3.3 0.57,5.8 l -3.59,55.7 -48.85,-4.1 c 0,0 3.51,-3.9 4.19,-12.2 l 3.69,-44 -8.21,-0.6 -3.68,43.9 c -0.69,8.3 -6.09,12 -9.87,11.7 l -47.58,-3.9 5.7,-55.5 c 0.21,-2.6 0.39,-4.7 1.53,-5.6"
         style="fill:#dabc92;fill-opacity:1;fill-rule:nonzero;stroke:none"
         id="path3032"
         inkscape:connector-curvature="0" />
    </g>
    <g
       id="g3034"
       transform="matrix(0.17858563,0,0,-0.17858563,-930.81535,2954.0646)">
      <path
         d="m 4817.4,16210.2 c -20.18,1.5 -33.58,21.8 -31.66,46.6 1.99,25.9 19.12,43.2 19.12,43.2 l 14.06,-9 c 0,0 -23.56,-11.8 -25.32,-34.8 -1.68,-21.6 12.19,-27.6 21.97,-28.4 31.21,-2.4 29.86,63.3 75.73,59.8 21.89,-1.7 30.39,-21.8 28.9,-41.1 -1.85,-24.2 -18.76,-35.7 -18.76,-35.7 l -13.87,8.7 c 0,0 23.23,7.4 24.77,27.6 1.27,16.3 -11.1,22.2 -16.85,22.7 -43.75,3.3 -30.93,-63.3 -78.09,-59.6"
         style="fill:#dabc92;fill-opacity:1;fill-rule:nonzero;stroke:none"
         id="path3036"
         inkscape:connector-curvature="0" />
    </g>
    <g
       id="g3038"
       transform="matrix(0.17349046,0,0,-0.17349046,-930.81535,2954.0646)">
      <path
         d="m 3483.32,16283.6 -83.9,-67.5 c -24.46,-20 -52.95,-16.4 -69.6,2.5 l 4.1,3.4 c 12.43,-10.6 38.11,-6.8 55.19,6.9 l 88.33,71.1 11.55,-14.4 c -1.71,0.1 -3.96,-0.6 -5.67,-2"
         style="fill:#dabc92;fill-opacity:1;fill-rule:nonzero;stroke:none"
         id="path3040"
         inkscape:connector-curvature="0" />
    </g>
    <g
       id="g3042"
       transform="matrix(0.17295812,0,0,-0.17295812,-930.81535,2954.0646)">
      <path
         d="m 3506.93,16154.5 -7.86,-8.4 -59.92,56.8 c 1.87,-0.6 3.71,1 5.51,2.9 l 83.93,88.7 c 1.67,1.7 3.32,3.8 2.49,5.5 l 59.92,-56.7 -7.85,-8.3 c 0.1,1.7 -1.65,3.1 -3.57,4.9 l -41.43,40.7 -35.08,-37.1 c 0,0 5.47,-0.6 11.69,-6.5 l 33.41,-31.6 -5.9,-6.2 -33.41,31.6 c -6.22,5.8 -13.05,5.1 -15.76,2.2 l -34.19,-36.1 42.94,-39.2 c 1.92,-1.8 3.53,-3.3 5.08,-3.2"
         style="fill:#dabc92;fill-opacity:1;fill-rule:nonzero;stroke:none"
         id="path3044"
         inkscape:connector-curvature="0" />
    </g>
    <g
       id="g3046"
       transform="matrix(0.17196223,0,0,-0.17196223,-930.81535,2954.0646)">
      <path
         d="m 3667.32,16174.7 c -11.76,-17.5 -36.93,-19.2 -58.39,-4.7 -22.38,15.1 -29.19,39.4 -29.19,39.4 l 15.33,8.1 c 0,0 -1.38,-27.4 18.44,-40.7 18.71,-12.6 31.22,-3.2 36.9,5.2 18.2,27 -41.83,59.5 -15.09,99.1 12.74,18.9 35.24,16.3 51.94,5 20.9,-14.1 22.63,-35.3 22.63,-35.3 l -15.02,-8 c 0,0 5.23,24.8 -12.21,36.5 -14.11,9.6 -25.76,1.4 -29.09,-3.6 -25.5,-37.8 41.22,-60.3 13.75,-101"
         style="fill:#dabc92;fill-opacity:1;fill-rule:nonzero;stroke:none"
         id="path3048"
         inkscape:connector-curvature="0" />
    </g>
    <g
       id="g3050"
       transform="matrix(0.17121011,0,0,-0.17121011,-930.81535,2954.0646)">
      <path
         d="m 3820.92,16178 c -8.7,-19.3 -33.32,-25.2 -57.01,-14.6 -24.73,11.2 -35.59,34.2 -35.59,34.2 l 13.81,10.5 c 0,0 3.27,-27.3 25.16,-37.2 20.66,-9.3 31.44,2.2 35.64,11.5 13.44,29.8 -51.49,51.8 -31.75,95.5 9.44,20.9 32.16,22.1 50.59,13.8 23.09,-10.5 28.39,-31.1 28.39,-31.1 l -13.5,-10.5 c 0,0 0.97,25.4 -18.27,34.1 -15.6,7 -25.74,-3 -28.21,-8.5 -18.84,-41.7 51.04,-52.8 30.74,-97.7"
         style="fill:#dabc92;fill-opacity:1;fill-rule:nonzero;stroke:none"
         id="path3052"
         inkscape:connector-curvature="0" />
    </g>
    <g
       id="g3054"
       transform="matrix(0.17072645,0,0,-0.17072645,-930.81535,2954.0646)">
      <path
         d="m 3899.01,16171.3 c -0.65,-2.2 -1.43,-4 -0.19,-6 l -18.76,5.6 c 1.65,0.9 2.31,3.1 2.95,5.2 l 35.65,118 c 0.64,2.1 1.28,4.2 0.39,5.9 l 18.76,-5.7 c -1.38,-0.7 -2.52,-2.9 -3.16,-5.1 l -35.64,-117.9"
         style="fill:#dabc92;fill-opacity:1;fill-rule:nonzero;stroke:none"
         id="path3056"
         inkscape:connector-curvature="0" />
    </g>
    <g
       id="g3058"
       transform="matrix(0.17047986,0,0,-0.17047986,-930.81535,2954.0646)">
      <path
         d="m 4074.48,16180.7 7.24,-13.1 c -11.98,-8.8 -25.6,-12.1 -47.2,-8.8 -21.63,3.4 -64.69,17 -55.13,78.8 9.58,62 55.05,62.4 76.44,59.1 21.4,-3.3 33.96,-11.1 42.4,-22.4 l -10.86,-10.3 c -6.21,10.9 -13.99,20.5 -33.4,23.5 -31.1,4.8 -51.77,-20.7 -56.72,-52.7 -4.9,-31.7 7.16,-61.8 38.26,-66.6 19.41,-3 33.05,4.8 38.97,12.5"
         style="fill:#dabc92;fill-opacity:1;fill-rule:nonzero;stroke:none"
         id="path3060"
         inkscape:connector-curvature="0" />
    </g>
    <g
       id="g3062"
       transform="matrix(0.17034827,0,0,-0.17034827,-930.81535,2954.0646)">
      <path
         d="m 4214.78,16224.4 -21.95,52.8 -21.1,-64.7 c 12.36,6.2 31.68,10.7 43.05,11.9 z m 23.88,-59.3 -20.79,51.8 c -14.93,-1.6 -42.85,-10.5 -53.8,-27.2 l -9.14,-26.8 -18.76,-0.5 c 2.86,1.9 3.04,3.7 4.1,6 l 44.61,131.2 16.75,0.4 51.63,-128.7 c 0.95,-2.2 2.34,-4 5.05,-5.7 l -19.65,-0.5"
         style="fill:#dabc92;fill-opacity:1;fill-rule:nonzero;stroke:none"
         id="path3064"
         inkscape:connector-curvature="0" />
    </g>
    <g
       id="g3066"
       transform="matrix(0.17088414,0,0,-0.17088414,-930.81535,2954.0646)">
      <path
         d="m 4486.04,16207.4 c 6.6,-20.1 -7.58,-41.1 -32.33,-49.2 -25.81,-8.5 -49.36,1.1 -49.36,1.1 l 3.03,17.2 c 0,0 20.92,-18 43.75,-10.5 21.59,7.1 21.8,22.8 18.62,32.6 -10.22,31.1 -73.08,3.4 -88.09,49.1 -7.14,21.8 8.86,38.1 28.1,44.4 24.11,7.9 42.03,-3.8 42.03,-3.8 l -2.91,-16.9 c 0,0 -16.46,19.5 -36.54,12.8 -16.31,-5.3 -17.01,-19.6 -15.13,-25.3 14.3,-43.6 73.43,-4.5 88.83,-51.5"
         style="fill:#dabc92;fill-opacity:1;fill-rule:nonzero;stroke:none"
         id="path3068"
         inkscape:connector-curvature="0" />
    </g>
    <g
       id="g3070"
       transform="matrix(0.17137203,0,0,-0.17137203,-930.81535,2954.0646)">
      <path
         d="m 4577.45,16238.6 -43,37.2 10,-66.8 c 8.26,10.9 23.43,23.5 33,29.6 z m 47.59,-42 -41.5,36.7 c -12.59,-8 -33.41,-28.4 -35.77,-48 l 3.8,-27.9 -16.44,-8.8 c 1.71,2.9 1.07,4.6 1.01,7.1 l -18.7,136.5 14.68,7.8 103.13,-91.4 c 1.84,-1.6 3.85,-2.5 7.04,-2.8 l -17.25,-9.2"
         style="fill:#dabc92;fill-opacity:1;fill-rule:nonzero;stroke:none"
         id="path3072"
         inkscape:connector-curvature="0" />
    </g>
    <g
       id="g3074"
       transform="matrix(0.17239614,0,0,-0.17239614,-930.81535,2954.0646)">
      <path
         d="m 4714.97,16190.8 -80.73,17.3 -1.09,1.4 2.87,74.5 c -0.51,3.6 -2.29,5.8 -2.29,5.8 l 13.05,10.2 -4.93,-79.7 96.79,-18.5 -18.6,-14.6 c 0,0 -1.9,2.5 -5.07,3.6 z m -43.69,-34.4 c 1.37,-1.7 2.41,-3.4 4.75,-3.5 l -15.31,-12 c 0.22,1.9 -1.13,3.6 -2.48,5.3 l -75.14,96.2 c -1.37,1.8 -2.72,3.5 -4.58,3.7 l 15.3,12 c -0.18,-1.6 0.97,-3.8 2.32,-5.5 l 75.14,-96.2"
         style="fill:#dabc92;fill-opacity:1;fill-rule:nonzero;stroke:none"
         id="path3076"
         inkscape:connector-curvature="0" />
    </g>
    <g
       id="g3078"
       transform="matrix(0.17319272,0,0,-0.17319272,-930.81535,2954.0646)">
      <path
         d="m 4762.29,16258 -52.49,20.3 31.72,-58.9 c 4.03,12.9 13.91,29.7 20.77,38.6 z m 58.4,-23.2 -50.94,20.3 c -9.07,-11.6 -21.59,-37.6 -17.23,-56.7 l 12.91,-24.7 -12.38,-13.7 c 0.61,3.3 -0.55,4.7 -1.43,7 l -63.14,120.8 11.06,12.2 126.65,-50.6 c 2.22,-0.8 4.4,-1 7.48,-0.2 l -12.98,-14.4"
         style="fill:#dabc92;fill-opacity:1;fill-rule:nonzero;stroke:none"
         id="path3080"
         inkscape:connector-curvature="0" />
    </g>
    <g
       id="g3082"
       transform="matrix(0.17565899,0,0,-0.17565899,-930.81535,2954.0646)">
      <path
         d="m 4875.52,16239.1 c -13.68,-11.3 -33.96,-9.4 -45.31,4.3 -11.33,13.6 -9.44,33.9 4.26,45.3 13.68,11.3 33.96,9.4 45.29,-4.3 11.34,-13.7 9.43,-33.9 -4.24,-45.3"
         style="fill:#dabc92;fill-opacity:1;fill-rule:nonzero;stroke:none"
         id="path3084"
         inkscape:connector-curvature="0" />
    </g>
    <g
       id="g3086"
       transform="matrix(0.183624,0,0,-0.183624,-930.81535,2954.0646)">
      <path
         d="m 3572.35,16300 v -39.8 h 597.57 v 39.8 h -597.57"
         style="fill:#dabc92;fill-opacity:1;fill-rule:nonzero;stroke:none"
         id="path3088"
         inkscape:connector-curvature="0" />
    </g>
    <g
       id="g3090"
       transform="matrix(0.18254697,0,0,-0.18254697,-930.81535,2954.0646)">
      <path
         d="m 3645.53,16259.9 h 134.25 V 15626 h -60.74 v 577.6 h -40.08 v -618.5 h 4.64 35.44 100.8 v 0.2 40.7 633.9 h 322.6 v 40.1 h -496.91 v -40.1"
         style="fill:#dabc92;fill-opacity:1;fill-rule:nonzero;stroke:none"
         id="path3092"
         inkscape:connector-curvature="0" />
    </g>
    <g
       id="g3094"
       transform="matrix(0.18147029,0,0,-0.18147029,-930.81535,2954.0646)">
      <path
         d="m 3930.84,16300 h -40.32 v -316.7 h 0.37 39.95 153.83 v -263.8 h -193.78 v -41.7 h 193.78 40 v 0 41.7 0 263.8 0 33.1 h -193.83 v 251.3 h 193.83 v 32.3 h -193.83 v 0"
         style="fill:#dabc92;fill-opacity:1;fill-rule:nonzero;stroke:none"
         id="path3096"
         inkscape:connector-curvature="0" />
    </g>
  </g>
</svg>
