<?xml version="1.0" encoding="UTF-8" standalone="no"?>
<!-- Created with Inkscape (http://www.inkscape.org/) -->

<svg
   xmlns:dc="http://purl.org/dc/elements/1.1/"
   xmlns:cc="http://creativecommons.org/ns#"
   xmlns:rdf="http://www.w3.org/1999/02/22-rdf-syntax-ns#"
   xmlns:svg="http://www.w3.org/2000/svg"
   xmlns="http://www.w3.org/2000/svg"
   xmlns:sodipodi="http://sodipodi.sourceforge.net/DTD/sodipodi-0.dtd"
   xmlns:inkscape="http://www.inkscape.org/namespaces/inkscape"
   width="335.74539mm"
   height="329.26413mm"
   viewBox="0 0 335.74539 329.26413"
   version="1.1"
   id="svg45202"
   inkscape:version="0.92.5 (2060ec1f9f, 2020-04-08)"
   sodipodi:docname="selo-colormain.svg">
  <defs
     id="defs45196" />
  <sodipodi:namedview
     id="base"
     pagecolor="#ffffff"
     bordercolor="#666666"
     borderopacity="1.0"
     inkscape:pageopacity="0.0"
     inkscape:pageshadow="2"
     inkscape:zoom="0.35"
     inkscape:cx="57.336468"
     inkscape:cy="710.80283"
     inkscape:document-units="mm"
     inkscape:current-layer="layer1"
     showgrid="false"
     inkscape:window-width="1600"
     inkscape:window-height="855"
     inkscape:window-x="1366"
     inkscape:window-y="0"
     inkscape:window-maximized="1" />
  <metadata
     id="metadata45199">
    <rdf:RDF>
      <cc:Work
         rdf:about="">
        <dc:format>image/svg+xml</dc:format>
        <dc:type
           rdf:resource="http://purl.org/dc/dcmitype/StillImage" />
        <dc:title></dc:title>
      </cc:Work>
    </rdf:RDF>
  </metadata>
  <g
     inkscape:label="Camada 1"
     inkscape:groupmode="layer"
     id="layer1"
     transform="translate(71.11075,-7.635788)">
    <g
       id="g2066"
       transform="matrix(0.1760227,0,0,-0.1760227,-2063.5604,3095.7073)">
      <path
         d="m 11484.3,16239.2 c -13.6,-11.3 -33.9,-9.4 -45.2,4.3 -11.3,13.6 -9.4,33.9 4.2,45.2 13.7,11.3 33.9,9.4 45.3,-4.3 11.3,-13.6 9.4,-33.8 -4.3,-45.2"
         style="fill:#3c5645;fill-opacity:1;fill-rule:nonzero;stroke:none"
         id="path2068"
         inkscape:connector-curvature="0" />
    </g>
    <g
       id="g2070"
       transform="matrix(0.17903789,0,0,-0.17903789,-2063.5604,3095.7073)">
      <path
         d="m 11192.5,16280.6 c -40.6,-2.8 -53.6,-28.4 -52.1,-50 l 1.2,-17 110.9,7.7 -1.2,17 c -1.6,23.5 -18.2,45.1 -58.8,42.3 z m 67.5,-39.2 2.6,-36.6 c 0,0 -1.6,1.3 -5,1.1 l -59.8,-4.1 -60,-4.2 c -2.8,-0.2 -3.9,-1.8 -3.9,-1.8 l -2.5,35.7 c -2.6,38.3 23.1,64 59.7,66.5 28.7,2 65.9,-13.3 68.9,-56.6"
         style="fill:#3c5645;fill-opacity:1;fill-rule:nonzero;stroke:none"
         id="path2072"
         inkscape:connector-curvature="0" />
    </g>
    <g
       id="g2074"
       transform="matrix(0.18059329,0,0,-0.18059329,-2063.5604,3095.7073)">
      <path
         d="m 11157.1,16288.6 10.9,-1.1 -7.7,-78.6 c -0.7,1.8 -3,2.2 -5.5,2.5 l -116.4,11.3 c -2.3,0.2 -4.8,0.3 -5.6,-1.3 l 7.7,78.6 10.9,-1.1 c -1.4,-0.9 -1.4,-3 -1.6,-5.5 l -6.5,-55.3 48.6,-4.7 c 0,0 -2.7,4.5 -1.9,12.6 l 4.3,43.9 8.2,-0.8 -4.3,-43.9 c -0.8,-8.1 3.8,-12.8 7.6,-13.2 l 47.4,-4.6 4.3,55.5 c 0.3,2.5 0.5,4.6 -0.4,5.7"
         style="fill:#3c5645;fill-opacity:1;fill-rule:nonzero;stroke:none"
         id="path2076"
         inkscape:connector-curvature="0" />
    </g>
    <g
       id="g2078"
       transform="matrix(0.18216244,0,0,-0.18216244,-2063.5604,3095.7073)">
      <path
         d="m 11070.3,16285.5 c 19.2,-5.1 28.5,-27 22.2,-50.6 -6.6,-24.7 -26.1,-38.2 -26.1,-38.2 l -12,11.1 c 0,0 24.8,7.3 30.6,29 5.5,20.7 -6.8,28.9 -16,31.4 -29.7,7.9 -40.2,-55.7 -83.8,-44.1 -20.8,5.5 -25.3,26.4 -20.5,44.8 6.2,23 24.5,31.1 24.5,31.1 l 11.8,-10.9 c 0,0 -23.7,-3 -28.8,-22.2 -4.1,-15.5 6.8,-23.4 12.2,-24.8 41.6,-11.1 41.1,55.4 85.9,43.4"
         style="fill:#3c5645;fill-opacity:1;fill-rule:nonzero;stroke:none"
         id="path2080"
         inkscape:connector-curvature="0" />
    </g>
    <g
       id="g2082"
       transform="matrix(0.18313752,0,0,-0.18313752,-2063.5604,3095.7073)">
      <path
         d="m 11061.8,16253.1 c 1.9,-0.8 3.5,-1.7 5.5,-0.7 l -6.9,-16.9 c -0.7,1.6 -2.6,2.4 -4.5,3.2 l -106.4,43.5 c -1.9,0.8 -3.8,1.6 -5.4,0.9 l 6.9,16.9 c 0.6,-1.3 2.5,-2.6 4.4,-3.4 l 106.4,-43.5"
         style="fill:#3c5645;fill-opacity:1;fill-rule:nonzero;stroke:none"
         id="path2084"
         inkscape:connector-curvature="0" />
    </g>
    <g
       id="g2086"
       transform="matrix(0.18475889,0,0,-0.18475889,-2063.5604,3095.7073)">
      <path
         d="m 11034.4,16246.9 c 0,0 0.4,-17.2 -13.3,-40.7 -10.2,-17.4 -36.7,-50.1 -86.5,-21 -50,29.2 -34.7,68.7 -24.6,86 10,17.2 21,25.4 33.5,28.8 l 5.2,-12.8 c -11.5,-1.7 -22.3,-5.1 -31.5,-20.7 -14.6,-25.1 0.4,-52 25.8,-66.9 25.3,-14.8 55.8,-14.4 70.4,10.6 10.7,18.3 9.2,25.9 9.2,25.9 l -32.4,18.9 c -1.8,1.1 -3.6,1.9 -5.3,1.5 l 9.1,15.6 c 0.2,-1.3 2.1,-2.9 3.9,-3.9 l 36.5,-21.3"
         style="fill:#3c5645;fill-opacity:1;fill-rule:nonzero;stroke:none"
         id="path2088"
         inkscape:connector-curvature="0" />
    </g>
    <g
       id="g2090"
       transform="matrix(0.1863291,0,0,-0.1863291,-2063.5604,3095.7073)">
      <path
         d="m 11040,16218.7 -11.4,-13.1 -119.7,20 73.9,-64.4 c 1.6,-1.3 2.7,-2.8 5.2,-2.1 l -12.6,-14.4 c 0.4,2.6 -1.1,3.6 -2.6,5 l -85.8,74.7 c -1.5,1.3 -2.8,2.7 -5.3,2 l 11.4,13.1 118.5,-19.1 -72.2,62.9 c -1.7,1.5 -3,2.4 -5.7,1.8 l 13,14.9 c -0.3,-2.8 1.1,-3.7 2.8,-5.1 l 85.6,-74.7 c 1.5,-1.3 2.2,-2.1 4.9,-1.5"
         style="fill:#3c5645;fill-opacity:1;fill-rule:nonzero;stroke:none"
         id="path2092"
         inkscape:connector-curvature="0" />
    </g>
    <g
       id="g2094"
       transform="matrix(0.18741319,0,0,-0.18741319,-2063.5604,3095.7073)">
      <path
         d="m 11062.2,16212.4 6.7,-8.2 -59.1,-48 c 0.8,1.6 -0.5,3.5 -2,5.4 l -71.1,87.4 c -1.5,1.7 -3.2,3.5 -4.8,2.9 l 59.1,48.1 6.6,-8.2 c -1.5,0.3 -3,-1.1 -4.9,-2.7 l -42.2,-33 29.7,-36.6 c 0,0 1.3,5 7.4,10 l 32.9,26.8 5,-6.2 -32.9,-26.8 c -6.1,-5 -6.2,-11.3 -3.9,-14.1 l 28.9,-35.6 41,34.6 c 1.9,1.5 3.5,2.8 3.6,4.2"
         style="fill:#3c5645;fill-opacity:1;fill-rule:nonzero;stroke:none"
         id="path2096"
         inkscape:connector-curvature="0" />
    </g>
    <g
       id="g2098"
       transform="matrix(0.1882468,0,0,-0.1882468,-2063.5604,3095.7073)">
      <path
         d="m 11054,16235.7 c 4.9,2.8 23.7,15.5 12.8,34.7 -9.8,17.4 -26.2,11.2 -31.3,8.3 l -19.2,-10.9 -0.3,-0.1 22.8,-40.5 z m 65,-35.9 -62.6,27.5 -13.4,-7.5 26.8,-47.5 c 1,-1.8 1.6,-3.6 4.2,-3.7 l -16.7,-9.5 c 1.2,2.4 0.1,3.8 -0.9,5.6 l -54.8,97.2 c -2.5,4.3 -4.4,4.9 -4.4,4.9 l 34.7,19.4 c 12.9,7.3 35.2,13.8 47.8,-8.5 13.1,-23.3 -10.6,-41.3 -10.6,-41.3 l 72.7,-29.7 -20.2,-11.5 c 1.1,2.3 0.1,3.1 -2.6,4.6"
         style="fill:#3c5645;fill-opacity:1;fill-rule:nonzero;stroke:none"
         id="path2100"
         inkscape:connector-curvature="0" />
    </g>
    <g
       id="g2102"
       transform="matrix(0.1892621,0,0,-0.1892621,-2063.5604,3095.7073)">
      <path
         d="m 11265.6,16241.8 c -8.3,37.7 -34,46.2 -54.1,41.9 l -15.7,-3.5 22.6,-102.7 15.7,3.5 c 21.8,4.7 39.7,23.3 31.5,60.8 z m -27.3,-68.6 -34,-7.4 c 0,0 1.1,1.6 0.4,4.8 l -12.2,55.3 -12.2,55.6 c -0.5,2.6 -2.2,3.5 -2.2,3.5 l 33,7.2 c 35.6,7.8 63.1,-12.7 70.6,-46.7 5.8,-26.5 -3.4,-63.5 -43.4,-72.3"
         style="fill:#3c5645;fill-opacity:1;fill-rule:nonzero;stroke:none"
         id="path2104"
         inkscape:connector-curvature="0" />
    </g>
    <g
       id="g2106"
       transform="matrix(0.18945224,0,0,-0.18945224,-2063.5604,3095.7073)">
      <path
         d="m 11402.5,16188.5 0.5,-10.5 -75.2,-3.5 c 1.6,0.8 1.7,3 1.5,5.5 l -5.2,111.3 c -0.2,2.2 -0.5,4.6 -2.1,5.1 l 75.2,3.6 0.5,-10.4 c -1,1.1 -3,0.8 -5.4,0.7 l -53,-1.5 2.2,-46.5 c 0,0 3.8,3.2 11.7,3.5 l 41.9,2 0.4,-7.8 -42,-2 c -7.8,-0.4 -11.6,-5.4 -11.4,-9 l 2.1,-45.3 53,3.5 c 2.4,0.1 4.4,0.2 5.3,1.3"
         style="fill:#3c5645;fill-opacity:1;fill-rule:nonzero;stroke:none"
         id="path2108"
         inkscape:connector-curvature="0" />
    </g>
    <g
       id="g2110"
       transform="matrix(0.1892688,0,0,-0.1892688,-2063.5604,3095.7073)">
      <path
         d="m 11567.4,16182.6 c -0.3,-1.9 -0.9,-3.7 0.4,-5.4 l -17.3,3.4 c 1.4,0.9 1.8,2.9 2.1,4.9 l 21.1,109.1 c 0.4,2 0.8,4 -0.2,5.4 l 17.4,-3.4 c -1.2,-0.8 -2,-2.8 -2.4,-4.8 l -21.1,-109.2"
         style="fill:#3c5645;fill-opacity:1;fill-rule:nonzero;stroke:none"
         id="path2112"
         inkscape:connector-curvature="0" />
    </g>
    <g
       id="g2114"
       transform="matrix(0.18907795,0,0,-0.18907795,-2063.5604,3095.7073)">
      <path
         d="m 11717.7,16152.8 -16.2,5.5 -26.4,116.5 -31.1,-91.4 c -0.7,-1.9 -1.7,-3.5 0,-5.5 l -17.9,6.1 c 2.5,0.6 2.9,2.4 3.6,4.3 l 36.1,106.1 c 0.7,1.9 1.5,3.5 -0.2,5.6 l 16.2,-5.5 26.9,-115.3 30.4,89.4 c 0.7,2.1 1.1,3.7 -0.5,5.9 l 18.5,-6.3 c -2.6,-0.8 -3,-2.4 -3.7,-4.5 l -36.1,-105.9 c -0.7,-1.9 -1.2,-2.8 0.4,-5"
         style="fill:#3c5645;fill-opacity:1;fill-rule:nonzero;stroke:none"
         id="path2116"
         inkscape:connector-curvature="0" />
    </g>
    <g
       id="g2118"
       transform="matrix(0.18844154,0,0,-0.18844154,-2063.5604,3095.7073)">
      <path
         d="m 11941.9,16249.1 -5.1,-9.2 c -0.5,1.7 -2.3,2.5 -4.3,3.6 l -34.1,20.1 -52.9,-95.1 c -1.7,-3 -1.3,-5.5 -1.3,-5.5 l -16.2,9 c 1.8,-0.1 3.1,1.8 4.2,3.9 l 53,95.1 -34.5,18 c -2,1.1 -3.6,2.3 -5.3,1.8 l 5.1,9.2 91.4,-50.9"
         style="fill:#3c5645;fill-opacity:1;fill-rule:nonzero;stroke:none"
         id="path2120"
         inkscape:connector-curvature="0" />
    </g>
    <g
       id="g2122"
       transform="matrix(0.18747422,0,0,-0.18747422,-2063.5604,3095.7073)">
      <path
         d="m 12039.7,16164.3 -6.6,-8.3 -59.5,47.5 c 1.8,-0.4 3.3,1.2 4.8,3.1 l 70.3,88.1 c 1.4,1.8 2.7,3.8 1.8,5.3 l 59.6,-47.5 -6.6,-8.2 c 0,1.6 -1.8,2.7 -3.7,4.2 l -41.2,34.2 -29.4,-36.8 c 0,0 5.1,-0.2 11.3,-5.1 l 33.1,-26.5 -4.9,-6.1 -33.2,26.4 c -6.2,4.9 -12.4,3.7 -14.7,0.8 l -28.5,-35.9 42.5,-32.6 c 1.9,-1.5 3.5,-2.8 4.9,-2.6"
         style="fill:#3c5645;fill-opacity:1;fill-rule:nonzero;stroke:none"
         id="path2124"
         inkscape:connector-curvature="0" />
    </g>
    <g
       id="g2126"
       transform="matrix(0.18640566,0,0,-0.18640566,-2063.5604,3095.7073)">
      <path
         d="m 12211.3,16237.3 c 3.8,-4.3 20.4,-20.1 37,-5.3 15,13.5 5.3,28.4 1.4,32.8 l -14.9,16.5 -0.2,0.3 -35,-31.2 z m -21.4,-72 13.6,67.8 -10.3,11.5 -41.1,-36.7 c -1.5,-1.4 -3.2,-2.3 -2.7,-4.9 l -13,14.5 c 2.6,-0.8 3.8,0.6 5.3,2 l 84.1,75.1 c 3.8,3.4 3.9,5.4 3.9,5.4 l 26.6,-30.1 c 10,-11.1 21.2,-31.7 1.9,-49 -20.1,-17.9 -43,1.5 -43,1.5 l -13.6,-78.1 -15.7,17.5 c 2.5,-0.6 3.1,0.5 4,3.5"
         style="fill:#3c5645;fill-opacity:1;fill-rule:nonzero;stroke:none"
         id="path2128"
         inkscape:connector-curvature="0" />
    </g>
    <g
       id="g2130"
       transform="matrix(0.18499913,0,0,-0.18499913,-2063.5604,3095.7073)">
      <path
         d="m 12333.3,16219.4 c -1.7,-1.2 -3.3,-2 -3.6,-4.2 l -10.2,15 c 1.8,-0.4 3.5,0.8 5.2,2 l 94.1,63.8 c 1.7,1.1 3.4,2.3 3.7,4 l 10.2,-15 c -1.4,0.3 -3.5,-0.6 -5.2,-1.8 l -94.2,-63.8"
         style="fill:#3c5645;fill-opacity:1;fill-rule:nonzero;stroke:none"
         id="path2132"
         inkscape:connector-curvature="0" />
    </g>
    <g
       id="g2134"
       transform="matrix(0.18426112,0,0,-0.18426112,-2063.5604,3095.7073)">
      <path
         d="m 12479.2,16258.2 c -54.9,-11.2 -46.2,-50.6 -45.3,-55 1,-4.3 9.3,-43.6 63.5,-32.4 53.9,11.2 46.1,53.3 45.9,55 -0.4,1.9 -9.3,43.9 -64.1,32.4 z m -49,-71.6 c 0,0 -31.1,53.3 31.4,83.3 62.6,30.1 85.1,-27.3 85.1,-27.3 0.1,-0.2 31,-53.4 -31.7,-83.6 -62.8,-30.1 -84.8,27.6 -84.8,27.6"
         style="fill:#3c5645;fill-opacity:1;fill-rule:nonzero;stroke:none"
         id="path2136"
         inkscape:connector-curvature="0" />
    </g>
    <g
       id="g2138"
       transform="matrix(0.18224641,0,0,-0.18224641,-2063.5604,3095.7073)">
      <path
         d="m 12687.3,16251.6 c 1.5,-5.6 9.1,-27.8 31.2,-22.1 20,5.2 18.1,23.2 16.6,29.1 l -5.7,22 -0.1,0.4 -46.5,-12 z m -53.2,-55.4 44.2,55.3 -4,15.3 -54.5,-14.1 c -2.1,-0.5 -4,-0.6 -4.8,-3.2 l -5,19.2 c 2,-1.8 3.8,-1.2 5.8,-0.6 l 111.6,28.8 c 5,1.3 6.1,3.1 6.1,3.1 l 10.1,-39.9 c 3.8,-14.7 4.4,-38.7 -21.3,-45.4 -26.7,-6.9 -38.4,21.6 -38.4,21.6 l -49,-64.7 -6,23.3 c 1.9,-1.7 3,-1 5.2,1.3"
         style="fill:#3c5645;fill-opacity:1;fill-rule:nonzero;stroke:none"
         id="path2140"
         inkscape:connector-curvature="0" />
    </g>
    <g
       id="g2142"
       transform="matrix(0.18045077,0,0,-0.18045077,-2063.5604,3095.7073)">
      <path
         d="m 12784.4,16211.4 -11,-0.9 -6.6,78.8 c 1,-1.6 3.3,-1.6 5.9,-1.4 l 116.6,9.8 c 2.3,0.1 4.8,0.6 5.3,2.3 l 6.6,-78.8 -10.9,-0.9 c 1.1,1.1 0.7,3.2 0.5,5.8 l -3.6,55.5 -48.7,-4.1 c 0,0 3.5,-3.9 4.2,-12.1 l 3.6,-43.9 -8.1,-0.7 -3.7,43.9 c -0.7,8.2 -6.1,12 -9.9,11.7 l -47.5,-4 5.7,-55.4 c 0.2,-2.5 0.4,-4.6 1.6,-5.6"
         style="fill:#3c5645;fill-opacity:1;fill-rule:nonzero;stroke:none"
         id="path2144"
         inkscape:connector-curvature="0" />
    </g>
    <g
       id="g2146"
       transform="matrix(0.17892747,0,0,-0.17892747,-2063.5604,3095.7073)">
      <path
         d="m 12909.2,16210.3 c -20.2,1.5 -33.6,21.8 -31.6,46.6 1.9,25.8 19,43.1 19,43.1 l 14.1,-9 c 0,0 -23.5,-11.8 -25.3,-34.7 -1.7,-21.6 12.2,-27.6 21.9,-28.4 31.2,-2.3 29.8,63.2 75.6,59.7 21.9,-1.7 30.3,-21.7 28.9,-41 -1.9,-24.2 -18.8,-35.7 -18.8,-35.7 l -13.8,8.7 c 0,0 23.2,7.4 24.7,27.6 1.3,16.3 -11.1,22.2 -16.8,22.6 -43.7,3.3 -30.9,-63.1 -77.9,-59.5"
         style="fill:#3c5645;fill-opacity:1;fill-rule:nonzero;stroke:none"
         id="path2148"
         inkscape:connector-curvature="0" />
    </g>
    <g
       id="g2150"
       transform="matrix(0.1738323,0,0,-0.1738323,-2063.5604,3095.7073)">
      <path
         d="m 11814.9,16283.6 -83.7,-67.3 c -24.5,-20 -52.9,-16.4 -69.5,2.5 l 4.1,3.3 c 12.4,-10.5 38,-6.7 55.1,7 l 88.1,70.9 11.6,-14.3 c -1.8,0 -4,-0.7 -5.7,-2.1"
         style="fill:#3c5645;fill-opacity:1;fill-rule:nonzero;stroke:none"
         id="path2152"
         inkscape:connector-curvature="0" />
    </g>
    <g
       id="g2154"
       transform="matrix(0.17329996,0,0,-0.17329996,-2063.5604,3095.7073)">
      <path
         d="m 11864,16154.8 -7.8,-8.3 -59.8,56.5 c 1.9,-0.5 3.7,1.1 5.5,3 l 83.8,88.5 c 1.6,1.8 3.3,3.8 2.4,5.5 l 59.8,-56.6 -7.8,-8.3 c 0.1,1.7 -1.6,3.1 -3.6,4.9 l -41.3,40.6 -35,-37 c 0,0 5.4,-0.6 11.7,-6.5 l 33.3,-31.5 -5.9,-6.2 -33.3,31.5 c -6.2,5.9 -13.1,5.1 -15.8,2.2 l -34.1,-36 42.9,-39.1 c 1.9,-1.8 3.5,-3.3 5,-3.2"
         style="fill:#3c5645;fill-opacity:1;fill-rule:nonzero;stroke:none"
         id="path2156"
         inkscape:connector-curvature="0" />
    </g>
    <g
       id="g2158"
       transform="matrix(0.17230407,0,0,-0.17230407,-2063.5604,3095.7073)">
      <path
         d="m 12072.4,16174.9 c -11.7,-17.4 -36.8,-19.1 -58.3,-4.7 -22.3,15.1 -29.1,39.4 -29.1,39.4 l 15.3,8.1 c 0,0 -1.4,-27.4 18.4,-40.7 18.7,-12.6 31.2,-3.2 36.8,5.3 18.2,26.9 -41.7,59.3 -15,98.8 12.7,18.9 35.2,16.3 51.8,5 20.9,-14 22.6,-35.2 22.6,-35.2 l -15,-8 c 0,0 5.2,24.7 -12.2,36.5 -14.1,9.5 -25.7,1.3 -29,-3.6 -25.5,-37.7 41.1,-60.3 13.7,-100.9"
         style="fill:#3c5645;fill-opacity:1;fill-rule:nonzero;stroke:none"
         id="path2160"
         inkscape:connector-curvature="0" />
    </g>
    <g
       id="g2162"
       transform="matrix(0.17155195,0,0,-0.17155195,-2063.5604,3095.7073)">
      <path
         d="m 12262.6,16178.2 c -8.7,-19.2 -33.3,-25.2 -56.9,-14.5 -24.7,11.1 -35.5,34.1 -35.5,34.1 l 13.7,10.5 c 0,0 3.3,-27.2 25.1,-37.1 20.7,-9.3 31.4,2.1 35.6,11.4 13.4,29.8 -51.4,51.7 -31.7,95.4 9.4,20.8 32.1,22 50.5,13.7 23.1,-10.4 28.3,-31 28.3,-31 l -13.4,-10.5 c 0,0 0.9,25.3 -18.3,34 -15.5,7 -25.6,-3 -28.1,-8.4 -18.8,-41.7 50.9,-52.7 30.7,-97.6"
         style="fill:#3c5645;fill-opacity:1;fill-rule:nonzero;stroke:none"
         id="path2164"
         inkscape:connector-curvature="0" />
    </g>
    <g
       id="g2166"
       transform="matrix(0.17106829,0,0,-0.17106829,-2063.5604,3095.7073)">
      <path
         d="m 12364.3,16171.5 c -0.6,-2.1 -1.4,-4 -0.1,-6 l -18.8,5.7 c 1.7,0.9 2.3,3 3,5.1 l 35.6,117.8 c 0.6,2.1 1.2,4.2 0.4,5.9 l 18.7,-5.7 c -1.4,-0.7 -2.5,-2.9 -3.2,-5.1 l -35.6,-117.7"
         style="fill:#3c5645;fill-opacity:1;fill-rule:nonzero;stroke:none"
         id="path2168"
         inkscape:connector-curvature="0" />
    </g>
    <g
       id="g2170"
       transform="matrix(0.17082134,0,0,-0.17082134,-2063.5604,3095.7073)">
      <path
         d="m 12551.7,16180.9 7.2,-13.1 c -11.9,-8.7 -25.5,-12 -47.1,-8.7 -21.5,3.4 -64.5,17 -55,78.6 9.6,61.9 55,62.3 76.3,59 21.4,-3.3 33.9,-11.1 42.3,-22.3 l -10.8,-10.3 c -6.2,10.9 -14,20.4 -33.4,23.4 -31,4.8 -51.6,-20.6 -56.6,-52.5 -4.9,-31.7 7.2,-61.8 38.2,-66.6 19.4,-3 33,4.9 38.9,12.5"
         style="fill:#3c5645;fill-opacity:1;fill-rule:nonzero;stroke:none"
         id="path2172"
         inkscape:connector-curvature="0" />
    </g>
    <g
       id="g2174"
       transform="matrix(0.17068976,0,0,-0.17068976,-2063.5604,3095.7073)">
      <path
         d="m 12698.3,16224.5 -21.9,52.7 -21.1,-64.5 c 12.3,6.1 31.6,10.6 43,11.8 z m 23.8,-59.1 -20.7,51.6 c -15,-1.5 -42.8,-10.5 -53.7,-27 l -9.2,-26.8 -18.7,-0.5 c 2.9,1.9 3.1,3.7 4.1,5.9 l 44.5,131 16.7,0.4 51.6,-128.4 c 0.9,-2.2 2.3,-4 5,-5.7 l -19.6,-0.5"
         style="fill:#3c5645;fill-opacity:1;fill-rule:nonzero;stroke:none"
         id="path2176"
         inkscape:connector-curvature="0" />
    </g>
    <g
       id="g2178"
       transform="matrix(0.17122598,0,0,-0.17122598,-2063.5604,3095.7073)">
      <path
         d="m 12942.4,16207.6 c 6.6,-20 -7.5,-41 -32.2,-49.2 -25.8,-8.4 -49.3,1.2 -49.3,1.2 l 3,17.1 c 0,0 20.9,-17.9 43.7,-10.5 21.5,7.1 21.7,22.9 18.5,32.6 -10.1,31 -72.9,3.4 -87.8,49 -7.2,21.8 8.8,38 28,44.3 24.1,7.9 41.9,-3.8 41.9,-3.8 l -2.9,-16.8 c 0,0 -16.4,19.4 -36.4,12.8 -16.3,-5.3 -17,-19.6 -15.1,-25.3 14.2,-43.5 73.3,-4.5 88.6,-51.4"
         style="fill:#3c5645;fill-opacity:1;fill-rule:nonzero;stroke:none"
         id="path2180"
         inkscape:connector-curvature="0" />
    </g>
    <g
       id="g2182"
       transform="matrix(0.17171387,0,0,-0.17171387,-2063.5604,3095.7073)">
      <path
         d="m 13009.6,16238.7 -42.9,37.2 10,-66.8 c 8.2,10.9 23.4,23.5 32.9,29.6 z m 47.5,-41.9 -41.4,36.7 c -12.6,-8 -33.3,-28.4 -35.7,-48 l 3.8,-27.8 -16.4,-8.8 c 1.7,2.9 1.1,4.6 1,7.1 l -18.7,136.2 14.7,7.8 102.9,-91.3 c 1.8,-1.5 3.9,-2.4 7,-2.8 l -17.2,-9.1"
         style="fill:#3c5645;fill-opacity:1;fill-rule:nonzero;stroke:none"
         id="path2184"
         inkscape:connector-curvature="0" />
    </g>
    <g
       id="g2186"
       transform="matrix(0.17273834,0,0,-0.17273834,-2063.5604,3095.7073)">
      <path
         d="m 13096.9,16191 -80.6,17.3 -1.1,1.4 2.9,74.4 c -0.5,3.5 -2.3,5.7 -2.3,5.7 l 13,10.2 -4.9,-79.6 96.6,-18.4 -18.6,-14.6 c 0,0 -1.9,2.5 -5,3.6 z m -43.6,-34.3 c 1.3,-1.7 2.4,-3.4 4.7,-3.6 l -15.3,-11.9 c 0.2,1.9 -1.1,3.6 -2.4,5.3 l -75,96 c -1.4,1.7 -2.8,3.5 -4.6,3.7 l 15.3,12 c -0.2,-1.6 0.9,-3.8 2.3,-5.5 l 75,-96"
         style="fill:#3c5645;fill-opacity:1;fill-rule:nonzero;stroke:none"
         id="path2188"
         inkscape:connector-curvature="0" />
    </g>
    <g
       id="g2190"
       transform="matrix(0.17353456,0,0,-0.17353456,-2063.5604,3095.7073)">
      <path
         d="m 13105.6,16258.1 -52.3,20.2 31.6,-58.8 c 4,12.9 13.9,29.7 20.7,38.6 z m 58.3,-23.1 -50.8,20.2 c -9.1,-11.6 -21.6,-37.5 -17.2,-56.6 l 12.9,-24.6 -12.4,-13.7 c 0.6,3.3 -0.5,4.7 -1.4,6.9 l -63,120.6 11,12.2 126.4,-50.5 c 2.2,-0.8 4.4,-1 7.5,-0.2 l -13,-14.3"
         style="fill:#3c5645;fill-opacity:1;fill-rule:nonzero;stroke:none"
         id="path2192"
         inkscape:connector-curvature="0" />
    </g>
    <g
       id="g2194"
       transform="matrix(0.17600083,0,0,-0.17600083,-2063.5604,3095.7073)">
      <path
         d="m 13101.7,16239.2 c -13.6,-11.3 -33.9,-9.4 -45.2,4.3 -11.3,13.6 -9.4,33.9 4.3,45.2 13.6,11.3 33.8,9.4 45.2,-4.3 11.3,-13.6 9.4,-33.8 -4.3,-45.2"
         style="fill:#3c5645;fill-opacity:1;fill-rule:nonzero;stroke:none"
         id="path2196"
         inkscape:connector-curvature="0" />
    </g>
    <g
       id="g2198"
       transform="matrix(0.17326715,0,0,-0.17326715,-2063.5604,3095.7073)">
      <path
         d="m 11979.9,16287.7 -38.2,-7.6 -8.5,8 33.7,11.9 13,-12.3"
         style="fill:#3c5645;fill-opacity:1;fill-rule:nonzero;stroke:none"
         id="path2200"
         inkscape:connector-curvature="0" />
    </g>
    <g
       id="g2202"
       transform="matrix(0.18396584,0,0,-0.18396584,-2063.5604,3095.7073)">
      <path
         d="m 11444.8,16300 v -39.8 h 596.5 v 39.8 h -596.5"
         style="fill:#3c5645;fill-opacity:1;fill-rule:nonzero;stroke:none"
         id="path2204"
         inkscape:connector-curvature="0" />
    </g>
    <g
       id="g2206"
       transform="matrix(0.18288882,0,0,-0.18288882,-2063.5604,3095.7073)">
      <path
         d="m 11564.2,16260 h 134 v -632.7 h -60.6 v 576.5 h -40 v -617.3 h 4.6 35.4 100.6 v 0.1 40.7 632.7 h 322 v 40 h -496 v -40"
         style="fill:#3c5645;fill-opacity:1;fill-rule:nonzero;stroke:none"
         id="path2208"
         inkscape:connector-curvature="0" />
    </g>
    <g
       id="g2210"
       transform="matrix(0.18181214,0,0,-0.18181214,-2063.5604,3095.7073)">
      <path
         d="m 11895.9,16300 h -40.3 v -316.1 h 0.4 39.9 153.5 v -263.3 H 11856 v -41.6 h 193.4 40 v 0 41.6 0 263.3 0 33.1 h -193.5 v 250.8 h 193.5 v 32.2 h -193.5 v 0"
         style="fill:#3c5645;fill-opacity:1;fill-rule:nonzero;stroke:none"
         id="path2212"
         inkscape:connector-curvature="0" />
    </g>
  </g>
</svg>
