<?xml version="1.0" encoding="UTF-8" standalone="no"?>
<svg
   xmlns:dc="http://purl.org/dc/elements/1.1/"
   xmlns:cc="http://creativecommons.org/ns#"
   xmlns:rdf="http://www.w3.org/1999/02/22-rdf-syntax-ns#"
   xmlns:svg="http://www.w3.org/2000/svg"
   xmlns="http://www.w3.org/2000/svg"
   xmlns:sodipodi="http://sodipodi.sourceforge.net/DTD/sodipodi-0.dtd"
   xmlns:inkscape="http://www.inkscape.org/namespaces/inkscape"
   preserveAspectRatio="xMidYMid meet"
   data-bbox="42.001 42.003 115.999 115.997"
   viewBox="42.001 42.003 115.999 115.997"
   height="200"
   width="200"
   data-type="color"
   role="img"
   version="1.1"
   id="svg16"
   sodipodi:docname="star.svg"
   inkscape:version="0.92.3 (2405546, 2018-03-11)">
  <metadata
     id="metadata22">
    <rdf:RDF>
      <cc:Work
         rdf:about="">
        <dc:format>image/svg+xml</dc:format>
        <dc:type
           rdf:resource="http://purl.org/dc/dcmitype/StillImage" />
      </cc:Work>
    </rdf:RDF>
  </metadata>
  <defs
     id="defs20" />
  <sodipodi:namedview
     pagecolor="#ffffff"
     bordercolor="#666666"
     borderopacity="1"
     objecttolerance="10"
     gridtolerance="10"
     guidetolerance="10"
     inkscape:pageopacity="0"
     inkscape:pageshadow="2"
     inkscape:window-width="1600"
     inkscape:window-height="842"
     id="namedview18"
     showgrid="false"
     inkscape:zoom="1.18"
     inkscape:cx="100"
     inkscape:cy="100"
     inkscape:window-x="1366"
     inkscape:window-y="251"
     inkscape:window-maximized="1"
     inkscape:current-layer="g14" />
  <g
     id="g14">
    <path
       d="M47.236 132.339c.56 1.082 1.358 1.753 1.947 2.248l.205.174c.891.759 1.815 1.486 2.739 2.213l1.466 1.16c1.029.817 2.061 1.637 3.106 2.433l.414.328c.418.337.899.725 1.523 1.068.609.536 1.572.889 2.605.899 5.026.046 10.029-1.66 14.44-3.167l.333-.112c.893-.304 1.772-.601 2.637-.879l.96-.306c4.804-1.536 9.657-3.088 14.431-4.718.295.247.586.479.861.696.306.241.531.419.745.601a275.277 275.277 0 0 0 5.118 4.231l7.701 6.292c.283.229.562.471.844.717.431.375.855.74 1.289 1.088 4.607 4.499 9.451 8.256 11.317 9.66a5.075 5.075 0 0 0 3.645 1.003c1.099-.165 1.986-.563 2.726-1.175a4.69 4.69 0 0 0 2.401-3.789c.03-.473.083-.93.136-1.38.122-1.04.254-2.167.201-3.474-.052-1.286-.08-2.571-.108-3.859l-.016-.763a655.04 655.04 0 0 1-.148-9.194l-.012-3.823a612.453 612.453 0 0 0-.031-5.749 512.785 512.785 0 0 0-.086-4.791l-.009-.927v-.367c.638-.343 1.22-.7 1.704-.997.249-.154.427-.266.573-.348 2.715-1.553 5.51-3.318 8.549-5.4a285.275 285.275 0 0 0 8.11-5.753l3.523-2.588c.232-.169.484-.333.74-.501.949-.62 2.091-1.368 3.012-2.479a5.037 5.037 0 0 0 .91-4.836 5.048 5.048 0 0 0-2.501-2.91c-1.531-1.243-3.025-2.532-4.515-3.825-.228-.197-.464-.433-.713-.679-.857-.85-1.771-1.757-2.857-2.474a5.498 5.498 0 0 0-1.405-1.344c-1.959-1.306-4.24-1.99-6.253-2.593a47.965 47.965 0 0 1-1.827-.571 576.798 576.798 0 0 0-7.845-2.618c-.879-.287-1.774-.598-2.682-.912l-.583-.201c-.856-3.231-2.014-6.231-3.136-9.139l-.843-2.202c-.506-1.339-.972-2.721-1.438-4.104-.95-2.808-1.915-5.659-3.227-8.381a4.823 4.823 0 0 0-1.591-1.873l-.774-.836c-1.387-1.446-2.8-2.92-4.356-4.31-.215-.193-.432-.399-.654-.608-1.038-.983-2.319-2.195-4.028-2.918a5.08 5.08 0 0 0-2-1.091c-1.354-.379-2.78-.163-4.014.603-2.306 1.437-4.041 3.609-5.572 5.524a45.036 45.036 0 0 1-1.525 1.85 1814.157 1814.157 0 0 1-4.134 4.619l-4.123 4.582c-2.443 2.686-4.951 5.444-7.111 8.507a32.65 32.65 0 0 0-.555-.063 25.82 25.82 0 0 1-.948-.114 363.258 363.258 0 0 0-4.777-.67c-2.64-.351-6.118-.79-9.594-1.068-3.452-.276-6.554-.425-9.481-.455l-.37-.003c-2.516-.037-7.206-.101-9.49 3.843a4.508 4.508 0 0 0-.522 1.355 4.121 4.121 0 0 0-.259 2.043c.397 3.174 2.382 5.439 3.832 7.093l.705.816a748.324 748.324 0 0 0 5.67 6.696 411.085 411.085 0 0 0 5.793 6.637l2.326 2.593c-.412.839-.752 1.671-1.06 2.423-.212.521-.388.95-.563 1.331l-1.827 3.942c-.77 1.655-1.539 3.31-2.301 4.97-2.132 4.644-4.316 9.254-6.501 13.866l-1.539 3.249c-.954 2.009-.696 4.29.667 5.984z"
       fill="#000010"
       data-color="1"
       id="path2" />
    <path
       d="M61.356 112.209c1.254-2.907 2.464-5.835 3.688-8.755.707-1.687 2.004-3.932 2.345-6.016.767-.099 1.394-.803 1.109-1.691-.4-1.249-1.247-1.977-2.122-2.931-.981-1.07-1.96-2.143-2.937-3.218-1.952-2.148-3.91-4.291-5.867-6.435a1316.37 1316.37 0 0 1-5.845-6.446c-1.388-1.54-2.716-3.449-4.581-4.399.012-.008.025-.013.037-.022.879-.629 3.44.153 4.395.231 1.32.108 2.648.133 3.97.215 2.811.175 5.617.446 8.417.748 2.635.284 5.263.624 7.887.997 1.36.193 2.719.396 4.077.603 1.499.229 2.885.635 4.362.202.756-.222 1.048-.858.983-1.493 3.913-3.683 7.375-7.92 10.982-11.904 2.109-2.33 4.226-4.652 6.327-6.989 1.212-1.348 2.761-2.763 4.027-4.294 1.021 4.629 2.885 9.187 4.42 13.602 1.916 5.514 3.486 11.205 5.537 16.661.6 1.598 2.431 1.328 3.009.153 1.581.794 3.312 1.349 4.958 1.922 2.376.826 4.748 1.665 7.136 2.456 2.482.823 4.961 1.657 7.433 2.513 1.45.502 2.984 1.207 4.526 1.755l-.07.048c-1.167.776-2.332 1.556-3.497 2.334-2.763 1.846-5.502 3.727-8.262 5.578-2.715 1.82-5.436 3.639-8.204 5.376-2.355 1.478-4.822 2.751-7.008 4.455-.605.472-.421 1.808.527 1.625.243-.047.48-.108.716-.168-.029.991.047 2 .051 2.966.007 1.586.002 3.171.001 4.757-.002 3.296.02 6.592.048 9.887.027 3.183.043 6.372.198 9.552.071 1.45.159 2.902.273 4.35.015.197.037.389.064.577a16.072 16.072 0 0 1-.809-.618c-1.75-1.459-3.474-2.952-5.261-4.366-2.053-1.625-4.158-3.18-6.201-4.822-3.132-2.516-6.226-5.084-9.427-7.51-1.463-1.109-2.909-2.264-4.421-3.303a4.922 4.922 0 0 0-.488-.293c.647-.22 1.296-.436 1.942-.659 1.591-.549.795-2.932-.813-2.495-6.715 1.826-13.305 4.334-19.917 6.506-3.686 1.211-7.365 2.447-11.075 3.582-1.389.425-2.757.926-4.131 1.405 2.722-5.281 5.139-10.777 7.491-16.229z"
       fill="#FFF171"
       data-color="2"
       id="path4"
       style="fill:#ffffff" />
    <path
       d="M106.042 50.915c.29.255.572.507.829.763 1.697 1.693 3.42 3.407 4.915 5.289.162.204.34.353.524.456.648 3.86 2.251 7.667 3.588 11.299 1.296 3.519 2.353 7.134 3.581 10.675-1.348-.344-2.697-.614-4.035-.754-1.234-5.143-3.358-10.198-5.114-15.153-1.463-4.129-2.711-8.448-4.288-12.575z"
       fill="#FF3998"
       data-color="3"
       id="path6"
       style="fill:#ffffff" />
    <path
       d="M117.574 107.429c.912-.478 1.81-1.007 2.723-1.543a173.635 173.635 0 0 0 8.66-5.457 323.114 323.114 0 0 0 8.254-5.693c1.215-.868 2.43-1.738 3.646-2.604.721-.513 1.606-.997 2.331-1.591.801 1.171 2.162 2.078 3.168 2.984 1.419 1.279 2.857 2.535 4.279 3.809-.417.299-.824.608-1.222.878-1.212.82-2.418 1.648-3.624 2.477-2.848 1.955-5.651 3.975-8.504 5.922-2.68 1.829-5.354 3.671-8.14 5.332-.336.2-1.99 1.001-3.178 1.886-2.658-2.115-5.391-4.727-8.393-6.4z"
       fill="#FF3998"
       data-color="3"
       id="path8"
       style="fill:#ffffff" />
    <path
       d="M69.672 126.046c5.245-1.681 10.503-3.361 15.732-5.112.379.598.763 1.182 1.378 1.707 1.417 1.211 2.869 2.383 4.292 3.588.437.37.877.734 1.317 1.101-5.2 1.529-10.328 3.469-15.461 5.168-4.832 1.599-9.664 3.271-14.526 4.784-.394-.841-1.178-1.27-1.986-1.909-1.243-.984-2.507-1.94-3.765-2.904-.67-.513-1.5-1.317-2.393-2.021 1.406-.234 2.801-.586 4.14-.969a373.154 373.154 0 0 0 11.272-3.433z"
       fill="#FF3998"
       data-color="3"
       id="path10"
       style="fill:#ffffff" />
    <path
       d="M120.93 147.536c-1.293-1.29-2.48-2.782-3.87-3.977-.023-.048-.046-.097-.072-.145.124-1.143.292-2.228.243-3.45-.063-1.564-.091-3.128-.125-4.693a607.388 607.388 0 0 1-.149-9.254c-.021-3.183-.004-6.367-.043-9.55-.02-1.584-.05-3.168-.085-4.752-.011-.498-.007-1.005-.011-1.514 2.199 2.065 4.884 3.815 7.2 5.65-.258 1.421-.09 2.948-.083 4.378.007 1.586.002 3.172.001 4.757-.002 3.296.02 6.592.048 9.887.026 3.183.043 6.372.198 9.552.07 1.451.158 2.902.272 4.35.066.835.242 1.574.448 2.308a50.515 50.515 0 0 1-3.972-3.547z"
       fill="#FF3998"
       data-color="3"
       id="path12"
       style="fill:#ffffff" />
  </g>
</svg>
